<svg width="424" height="153" viewBox="0 0 424 153" fill="none" xmlns="http://www.w3.org/2000/svg">
<path d="M65.8438 29.9688H61.5C61.5 34.9271 61.6042 40.1771 61.8125 45.7188C61.8125 45.8438 61.8646 45.9583 61.9688 46.0625C62.0729 46.1667 62.2188 46.2708 62.4062 46.375C62.6146 46.4792 62.9583 46.6146 63.4375 46.7812C63.9167 46.9479 64.8854 47.1354 66.3438 47.3438C67.8021 47.5312 68.6354 47.6458 68.8438 47.6875C69.1979 48.8542 69.1354 50.1354 68.6562 51.5312C60.9688 51.3646 56.3021 51.2812 54.6562 51.2812C53.5312 51.2812 49.6042 51.3646 42.875 51.5312C42.3542 50.0938 42.3542 48.75 42.875 47.5C47.3958 47.0417 49.6771 46.4271 49.7188 45.6562C49.9688 40.4479 50.0938 33.8958 50.0938 26C50.0938 19.2917 49.9896 13.4896 49.7812 8.59375C49.7396 7.82292 47.4167 7.20833 42.8125 6.75C42.4167 5.29167 42.4583 3.94792 42.9375 2.71875C49.3333 2.92708 53.5729 3.03125 55.6562 3.03125H84.5938C85.1146 7.11458 86.7396 11.4167 89.4688 15.9375C88.9896 16.9375 87.875 17.75 86.125 18.375C84.4167 15.2708 81.8958 12.6875 78.5625 10.625C75.25 8.54167 70.9479 7.5 65.6562 7.5H61.8125C61.6042 14.9792 61.5 20.7188 61.5 24.7188C62.5208 24.7604 63.9896 24.7812 65.9062 24.7812C67.6562 24.7812 69.0521 24.1979 70.0938 23.0312C71.1354 21.8438 72.2812 20 73.5312 17.5L74.875 14.875C76.625 15.5 77.7292 16.3021 78.1875 17.2812C75.9792 21.2604 74.875 24.5312 74.875 27.0938C74.875 29.8646 75.9792 33.125 78.1875 36.875C77.6875 37.9375 76.625 38.75 75 39.3125C74.5208 38.6667 73.9688 37.6875 73.3438 36.375C72.4896 34.9583 71.8125 33.9062 71.3125 33.2188C70.8125 32.5104 70.0729 31.8021 69.0938 31.0938C68.1146 30.3854 67.0312 30.0104 65.8438 29.9688ZM56.6875 28.125L65.5938 28.0625C66.4896 28.0625 67.3333 28.2083 68.125 28.5C68.9167 28.7917 69.5417 29.0938 70 29.4062C70.4792 29.6979 71.0208 30.2708 71.625 31.125C72.25 31.9792 72.6875 32.6042 72.9375 33C73.2083 33.375 73.6458 34.1667 74.25 35.375C74.875 36.5833 75.2917 37.3646 75.5 37.7188C76.1458 37.4479 76.5521 37.1667 76.7188 36.875C74.6354 33.1667 73.5938 29.9062 73.5938 27.0938C73.5938 25.8021 73.8854 24.2292 74.4688 22.375C75.0729 20.5208 75.8229 18.8229 76.7188 17.2812C76.6354 16.9896 76.2292 16.7188 75.5 16.4688C75.3333 16.7604 75 17.3854 74.5 18.3438C74.0208 19.3021 73.7083 19.9271 73.5625 20.2188C73.4167 20.4896 73.1146 21 72.6562 21.75C72.2188 22.5 71.8646 23 71.5938 23.25C71.3438 23.5 70.9688 23.875 70.4688 24.375C69.9896 24.8542 69.5208 25.1875 69.0625 25.375C68.625 25.5417 68.1042 25.6979 67.5 25.8438C66.8958 25.9896 66.2604 26.0625 65.5938 26.0625C61.6979 26.0625 58.7292 26.0208 56.6875 25.9375C56.6875 20.8958 56.8125 14.3229 57.0625 6.21875H65.7188C75.9062 6.21875 82.9062 9.73958 86.7188 16.7812C87.2604 16.5729 87.6146 16.2917 87.7812 15.9375C85.6979 11.6875 83.3646 8.6875 80.7812 6.9375C78.1979 5.1875 74.3438 4.3125 69.2188 4.3125H54.7812C52.1771 4.3125 48.5208 4.22917 43.8125 4.0625V5.53125C48.6042 5.98958 51.0208 6.98958 51.0625 8.53125C51.2708 13.4271 51.375 19.25 51.375 26C51.375 32.6042 51.25 39.1771 51 45.7188C50.9583 47.2604 48.5417 48.2604 43.75 48.7188C43.5833 49.0521 43.5833 49.5417 43.75 50.1875C47.2917 50.0625 50.9271 50 54.6562 50C59.0938 50 63.3542 50.0625 67.4375 50.1875C67.6042 49.8542 67.6042 49.3646 67.4375 48.7188C60.5625 48.3021 57.0833 47.3021 57 45.7188C56.7917 40.8021 56.6875 34.9375 56.6875 28.125ZM104.812 32.4062C105.333 30.4896 106.406 28.625 108.031 26.8125C109.656 25 111.312 24.0938 113 24.0938C114.979 24.0938 115.969 24.7292 115.969 26C115.969 27.1458 115.427 27.875 114.344 28.1875C114.052 28.6042 114.052 29.0938 114.344 29.6562C115.469 29.6562 116.385 29.3125 117.094 28.625C117.823 27.9375 118.188 26.9792 118.188 25.75C118.188 24.4583 117.792 23.4479 117 22.7188C116.229 21.9688 115.219 21.5938 113.969 21.5938C112.344 21.5938 110.708 22.25 109.062 23.5625C107.438 24.8542 106.021 26.3021 104.812 27.9062V22.5312C104.646 22.1979 104.292 21.9271 103.75 21.7188C100.958 23.0312 97.7292 23.8854 94.0625 24.2812C93.9375 24.7812 93.9375 25.2708 94.0625 25.75C96.875 25.875 98.8854 26.3021 100.094 27.0312C100.26 34.8021 100.24 41.0312 100.031 45.7188C99.9896 47.2604 98.2188 48.2604 94.7188 48.7188C94.4062 49.2812 94.4062 49.7708 94.7188 50.1875C100.177 49.9375 106.125 49.9375 112.562 50.1875C112.854 49.7708 112.854 49.2812 112.562 48.7188C107.625 48.2604 105.135 47.2604 105.094 45.7188C104.906 41.4896 104.812 37.0521 104.812 32.4062ZM109.5 45.6562C109.542 46.4688 110.948 47.1042 113.719 47.5625C114.406 48.9375 114.365 50.2604 113.594 51.5312C104.76 51.2396 98.0833 51.1771 93.5625 51.3438C92.7917 50.1146 92.75 48.8542 93.4375 47.5625C96.9375 47.1042 98.7083 46.4688 98.75 45.6562C99 39.7188 99.0208 33.7604 98.8125 27.7812C97.4375 27.3646 95.5417 27.0938 93.125 26.9688C92.6458 25.7188 92.6458 24.3958 93.125 23C96.6042 22.7917 100.292 21.8542 104.188 20.1875C106.438 20.4375 108.125 21.1146 109.25 22.2188C111 20.9479 112.573 20.3125 113.969 20.3125C115.594 20.3125 116.917 20.7917 117.938 21.75C118.958 22.7083 119.469 24.0417 119.469 25.75C119.469 27.375 118.99 28.6458 118.031 29.5625C117.073 30.4792 115.844 30.9375 114.344 30.9375C112.948 30.9375 111.781 30.4688 110.844 29.5312C109.99 30.6771 109.458 31.7188 109.25 32.6562C109.25 37.1771 109.333 41.5104 109.5 45.6562ZM140.156 23.625C142.302 23.625 144 24.6562 145.25 26.7188C146.521 28.7604 147.156 31.9375 147.156 36.25C147.156 40.5625 146.521 43.7396 145.25 45.7812C144 47.8229 142.302 48.8438 140.156 48.8438C138.969 48.8438 137.885 48.5938 136.906 48.0938C135.948 47.5938 135.125 46.8229 134.438 45.7812C133.771 44.7396 133.25 43.4375 132.875 41.875C132.5 40.2917 132.312 38.4167 132.312 36.25C132.312 34.1042 132.5 32.2396 132.875 30.6562C133.25 29.0521 133.771 27.7396 134.438 26.7188C135.125 25.6771 135.948 24.9062 136.906 24.4062C137.885 23.8854 138.969 23.625 140.156 23.625ZM140.156 50.9062C142.094 50.9062 143.833 50.5417 145.375 49.8125C146.917 49.0833 148.229 48.0729 149.312 46.7812C150.417 45.4688 151.26 43.9167 151.844 42.125C152.427 40.3333 152.719 38.375 152.719 36.25C152.719 34.125 152.427 32.1667 151.844 30.375C151.26 28.5833 150.417 27.0417 149.312 25.75C148.229 24.4375 146.917 23.4167 145.375 22.6875C143.833 21.9583 142.094 21.5938 140.156 21.5938C138.094 21.5938 136.229 21.9583 134.562 22.6875C132.896 23.4167 131.479 24.4271 130.312 25.7188C129.167 27.0104 128.281 28.5625 127.656 30.375C127.031 32.1667 126.719 34.125 126.719 36.25C126.719 38.3958 127.031 40.3646 127.656 42.1562C128.281 43.9479 129.167 45.5 130.312 46.8125C131.479 48.1042 132.896 49.1146 134.562 49.8438C136.229 50.5521 138.094 50.9062 140.156 50.9062ZM141.25 20.3125C143.771 20.3125 146.01 20.6979 147.969 21.4688C149.948 22.2396 151.615 23.3333 152.969 24.75C154.323 26.1458 155.354 27.8229 156.062 29.7812C156.771 31.7396 157.125 33.8958 157.125 36.25C157.125 38.5833 156.771 40.7292 156.062 42.6875C155.354 44.6458 154.323 46.3333 152.969 47.75C151.635 49.1458 149.979 50.2292 148 51C146.021 51.7917 143.771 52.1875 141.25 52.1875C138.75 52.1875 136.51 51.7917 134.531 51C132.573 50.2292 130.917 49.1458 129.562 47.75C128.229 46.3333 127.208 44.6562 126.5 42.7188C125.792 40.7604 125.438 38.6042 125.438 36.25C125.438 33.8958 125.792 31.7396 126.5 29.7812C127.208 27.8229 128.24 26.1458 129.594 24.75C130.948 23.3333 132.604 22.2396 134.562 21.4688C136.521 20.6979 138.75 20.3125 141.25 20.3125ZM136.719 36.25C136.719 42.9792 138.229 46.7083 141.25 47.4375C144.333 46.7083 145.875 42.9792 145.875 36.25C145.875 29.5833 144.333 25.8438 141.25 25.0312C138.229 25.8438 136.719 29.5833 136.719 36.25ZM183.531 48.5625C183.281 49.0417 183.281 49.5521 183.531 50.0938C188.948 49.9688 194.375 49.9688 199.812 50.0938C200.104 49.5938 200.104 49.0833 199.812 48.5625C194.729 48.3125 192.167 47.3125 192.125 45.5625L191.812 29.8438C191.708 26.9896 191.24 24.9062 190.406 23.5938C189.594 22.2604 188.156 21.5938 186.094 21.5938C182.635 21.5938 178.521 23.9792 173.75 28.75V22.5312C173.583 22.1979 173.219 21.9271 172.656 21.7188C169.76 23.0729 166.75 23.9271 163.625 24.2812C163.5 24.7812 163.5 25.2708 163.625 25.75C166.021 25.875 167.792 26.3021 168.938 27.0312C169.167 33.2604 169.167 39.4375 168.938 45.5625C168.896 47.1042 167.104 48.1042 163.562 48.5625C163.312 49.0417 163.312 49.5521 163.562 50.0938C168.979 49.8854 174.427 49.8854 179.906 50.0938C180.156 49.5521 180.156 49.0417 179.906 48.5625C176.01 48.1458 174.042 47.1458 174 45.5625C173.833 41.2292 173.75 36.2917 173.75 30.75C177.938 27.0625 181.219 25.2188 183.594 25.2188C185.865 25.2188 187 27.1042 187 30.875L186.938 45.5625C186.938 46.5833 186.625 47.3021 186 47.7188C185.375 48.1146 184.552 48.3958 183.531 48.5625ZM182.531 51.1875C182.01 49.9583 182.01 48.6979 182.531 47.4062C183.198 47.4062 183.885 47.2292 184.594 46.875C185.302 46.5 185.656 46.0625 185.656 45.5625L185.719 30.875C185.719 28.6042 185.271 27.2188 184.375 26.7188C182.833 27.0938 180.76 28.2188 178.156 30.0938C178.156 35.8229 178.24 40.9583 178.406 45.5C178.51 46.6042 179.344 47.2396 180.906 47.4062C181.427 48.6979 181.427 49.9583 180.906 51.1875C174.802 50.9792 168.667 50.9792 162.5 51.1875C161.979 49.9583 161.979 48.6979 162.5 47.4062C165.896 46.9479 167.615 46.3125 167.656 45.5C167.885 39.625 167.885 33.7188 167.656 27.7812C166.26 27.3646 164.542 27.0938 162.5 26.9688C162.021 25.7188 162.021 24.3958 162.5 23C165.646 22.8333 169.188 21.8958 173.125 20.1875C175.375 20.3542 177.052 21.0312 178.156 22.2188V23.25C181.115 21.2917 184.51 20.3125 188.344 20.3125C191.156 20.3125 193.156 21.0833 194.344 22.625C195.552 24.1458 196.177 26.5521 196.219 29.8438C196.302 38.1146 196.406 43.3542 196.531 45.5625C196.573 46.4167 198.042 47.0312 200.938 47.4062C201.417 48.7812 201.375 50.0417 200.812 51.1875C194.708 51.0625 188.615 51.0625 182.531 51.1875ZM215.062 25.375H227.344C227.635 24.5625 227.635 23.8125 227.344 23.125H215.062V16.2812C214.542 16.0521 214.021 16.0521 213.5 16.2812C212.729 17.7188 211.875 18.9792 210.938 20.0625C210 21.125 209.208 21.875 208.562 22.3125C207.938 22.7292 207.031 23.2708 205.844 23.9375C205.698 24.375 205.698 24.8542 205.844 25.375H209.656V41.75C209.656 47.8542 212.177 50.9062 217.219 50.9062C219.365 50.9062 221.344 50.3542 223.156 49.25C224.969 48.125 226.323 46.75 227.219 45.125C227.031 44.6667 226.688 44.4167 226.188 44.375C224.229 46.125 222.333 47 220.5 47C216.875 47 215.062 45.3542 215.062 42.0625V25.375ZM225.812 43.0312C227.125 43.1979 228.062 43.9167 228.625 45.1875C227.542 47.1667 225.969 48.8229 223.906 50.1562C221.844 51.5104 219.615 52.1875 217.219 52.1875C211.344 52.1875 208.406 48.7083 208.406 41.75V26.625H204.562C204.25 25.5208 204.25 24.375 204.562 23.1875C205.833 22.4583 206.802 21.8646 207.469 21.4062C208.135 20.9271 208.969 20.1562 209.969 19.0938C210.969 18.0312 211.854 16.75 212.625 15.25C214.583 14.4375 216.865 14.4792 219.469 15.375V21.8438H228.562C229.229 23.3854 229.229 24.9792 228.562 26.625H219.469V42.0625C219.469 44.0625 220.188 45.2396 221.625 45.5938C222.875 45.3229 224.271 44.4688 225.812 43.0312ZM277.125 4.3125H261.406C258.802 4.3125 255.146 4.22917 250.438 4.0625V5.53125C255.229 5.98958 257.646 6.98958 257.688 8.53125C257.896 13.4271 258 19.25 258 26C258 32.6042 257.875 39.1771 257.625 45.7188C257.583 47.2604 255.167 48.2604 250.375 48.7188C250.292 49.4479 250.292 49.9375 250.375 50.1875C254.396 50.0625 263.74 50 278.406 50C283.531 50 287.385 49.125 289.969 47.375C292.552 45.625 294.885 42.6146 296.969 38.3438C296.802 38.0104 296.438 37.7396 295.875 37.5312C292.083 44.5729 285.094 48.0938 274.906 48.0938H263.625C263.417 38.9896 263.312 32.3333 263.312 28.125L273.5 28.0625C274.396 28.0625 275.229 28.2083 276 28.5C276.792 28.7917 277.417 29.0938 277.875 29.4062C278.354 29.6979 278.906 30.2708 279.531 31.125C280.156 31.9792 280.594 32.6042 280.844 33C281.094 33.375 281.531 34.1667 282.156 35.375C282.781 36.5833 283.198 37.3646 283.406 37.7188C284.052 37.4479 284.458 37.1667 284.625 36.875C282.542 33.3333 281.5 30.0729 281.5 27.0938C281.5 25.8021 281.792 24.2292 282.375 22.375C282.979 20.5208 283.729 18.8229 284.625 17.2812C284.458 16.9896 284.052 16.7188 283.406 16.4688C283.24 16.7604 282.906 17.3854 282.406 18.3438C281.927 19.3021 281.604 19.9271 281.438 20.2188C281.292 20.4896 280.99 21 280.531 21.75C280.094 22.5 279.75 23 279.5 23.25C279.25 23.5 278.875 23.875 278.375 24.375C277.896 24.8542 277.427 25.1875 276.969 25.375C276.531 25.5417 276.01 25.6979 275.406 25.8438C274.802 25.9896 274.167 26.0625 273.5 26.0625C269.021 26.0625 265.625 26.0208 263.312 25.9375C263.312 20.8958 263.438 14.3229 263.688 6.21875H273.625C283.812 6.21875 290.802 9.73958 294.594 16.7812C295.156 16.5729 295.521 16.2917 295.688 15.9375C293.604 11.6875 291.271 8.6875 288.688 6.9375C286.104 5.1875 282.25 4.3125 277.125 4.3125ZM281.438 17.5L282.781 14.875C284.531 15.5 285.635 16.3021 286.094 17.2812C285.156 18.9062 284.365 20.6667 283.719 22.5625C283.094 24.4375 282.781 25.9479 282.781 27.0938C282.781 29.8646 283.885 33.125 286.094 36.875C285.594 37.9375 284.531 38.75 282.906 39.3125C282.135 38.0417 281.573 37.0625 281.219 36.375C280.365 34.9583 279.688 33.9062 279.188 33.2188C278.708 32.5104 277.979 31.8021 277 31.0938C276.021 30.3854 274.938 30.0104 273.75 29.9688H268.125C268.125 34.5729 268.208 40.1875 268.375 46.8125H274.844C280.135 46.8125 284.438 45.7812 287.75 43.7188C291.083 41.6354 293.604 39.0312 295.312 35.9062C297.062 36.5521 298.167 37.3646 298.625 38.3438C295.896 42.8646 294.281 47.1771 293.781 51.2812H267.844C259.615 51.2812 253.5 51.3438 249.5 51.4688C249.062 50.1146 249.042 48.7917 249.438 47.5C254 47.0417 256.302 46.4271 256.344 45.6562C256.594 39.1146 256.719 32.5625 256.719 26C256.719 19.2917 256.615 13.4896 256.406 8.59375C256.365 7.82292 254.042 7.20833 249.438 6.75C249.042 5.29167 249.083 3.94792 249.562 2.71875C255.958 2.92708 260.198 3.03125 262.281 3.03125H292.5C293 7.11458 294.625 11.4167 297.375 15.9375C296.896 16.9375 295.781 17.75 294.031 18.375C292.323 15.2708 289.802 12.6875 286.469 10.625C283.156 8.54167 278.854 7.5 273.562 7.5H268.438C268.229 14.9792 268.125 20.7188 268.125 24.7188C269.438 24.7604 271.333 24.7812 273.812 24.7812C275.562 24.7812 276.958 24.1979 278 23.0312C279.042 21.8438 280.188 20 281.438 17.5ZM324.219 48.5625C323.969 49.0417 323.969 49.5521 324.219 50.0938C329.635 49.9688 335.062 49.9688 340.5 50.0938C340.792 49.5938 340.792 49.0833 340.5 48.5625C335.417 48.3125 332.854 47.3125 332.812 45.5625L332.5 29.8438C332.396 26.9896 331.927 24.9062 331.094 23.5938C330.281 22.2604 328.844 21.5938 326.781 21.5938C323.323 21.5938 319.208 23.9792 314.438 28.75V22.5312C314.271 22.1979 313.906 21.9271 313.344 21.7188C310.448 23.0729 307.438 23.9271 304.312 24.2812C304.188 24.7812 304.188 25.2708 304.312 25.75C306.708 25.875 308.479 26.3021 309.625 27.0312C309.854 33.2604 309.854 39.4375 309.625 45.5625C309.583 47.1042 307.792 48.1042 304.25 48.5625C304 49.0417 304 49.5521 304.25 50.0938C309.667 49.8854 315.115 49.8854 320.594 50.0938C320.844 49.5521 320.844 49.0417 320.594 48.5625C316.698 48.1458 314.729 47.1458 314.688 45.5625C314.521 41.2292 314.438 36.2917 314.438 30.75C318.625 27.0625 321.906 25.2188 324.281 25.2188C326.552 25.2188 327.688 27.1042 327.688 30.875L327.625 45.5625C327.625 46.5833 327.312 47.3021 326.688 47.7188C326.062 48.1146 325.24 48.3958 324.219 48.5625ZM323.219 51.1875C322.698 49.9583 322.698 48.6979 323.219 47.4062C323.885 47.4062 324.573 47.2292 325.281 46.875C325.99 46.5 326.344 46.0625 326.344 45.5625L326.406 30.875C326.406 28.6042 325.958 27.2188 325.062 26.7188C323.521 27.0938 321.448 28.2188 318.844 30.0938C318.844 35.8229 318.927 40.9583 319.094 45.5C319.198 46.6042 320.031 47.2396 321.594 47.4062C322.115 48.6979 322.115 49.9583 321.594 51.1875C315.49 50.9792 309.354 50.9792 303.188 51.1875C302.667 49.9583 302.667 48.6979 303.188 47.4062C306.583 46.9479 308.302 46.3125 308.344 45.5C308.573 39.625 308.573 33.7188 308.344 27.7812C306.948 27.3646 305.229 27.0938 303.188 26.9688C302.708 25.7188 302.708 24.3958 303.188 23C306.333 22.8333 309.875 21.8958 313.812 20.1875C316.062 20.3542 317.74 21.0312 318.844 22.2188V23.25C321.802 21.2917 325.198 20.3125 329.031 20.3125C331.844 20.3125 333.844 21.0833 335.031 22.625C336.24 24.1458 336.865 26.5521 336.906 29.8438C336.99 38.1146 337.094 43.3542 337.219 45.5625C337.26 46.4167 338.729 47.0312 341.625 47.4062C342.104 48.7812 342.062 50.0417 341.5 51.1875C335.396 51.0625 329.302 51.0625 323.219 51.1875ZM361.062 46.8125C358.583 46.8125 356.698 45.8125 355.406 43.8125C354.135 41.7917 353.5 39.25 353.5 36.1875C353.5 33.7083 353.75 31.5833 354.25 29.8125C354.771 28.0417 355.448 26.7396 356.281 25.9062C357.115 25.0729 357.927 24.4896 358.719 24.1562C359.51 23.8021 360.312 23.625 361.125 23.625C364.062 23.625 366.26 24.8646 367.719 27.3438V31.875C367.719 37.5625 367.698 41.4271 367.656 43.4688C365.344 45.6979 363.146 46.8125 361.062 46.8125ZM381.469 47.5C382.156 48.875 382.115 50.1979 381.344 51.4688C376.01 51.3021 371.531 51.3021 367.906 51.4688C367.135 51.1354 366.646 50.7083 366.438 50.1875C364.417 51.5208 361.615 52.1875 358.031 52.1875C354.49 52.1875 351.615 50.8646 349.406 48.2188C347.219 45.5729 346.125 41.9688 346.125 37.4062C346.125 35.3854 346.427 33.4167 347.031 31.5C347.635 29.5833 348.542 27.7708 349.75 26.0625C350.958 24.3542 352.635 22.9688 354.781 21.9062C356.948 20.8438 359.417 20.3125 362.188 20.3125C364.083 20.3125 365.5 20.3542 366.438 20.4375C366.396 17.1458 366.375 13.1979 366.375 8.59375C365 8.15625 363.094 7.875 360.656 7.75C360.198 6.52083 360.198 5.19792 360.656 3.78125C363.573 3.53125 367.271 2.59375 371.75 0.96875C374 1.13542 375.677 1.82292 376.781 3.03125C376.781 26.8021 376.875 41.0104 377.062 45.6562C377.104 46.5521 378.573 47.1667 381.469 47.5ZM366.438 27.6562C365.396 26.1771 364.031 25.3021 362.344 25.0312C360.885 25.3438 359.635 26.3542 358.594 28.0625C357.552 29.75 357.031 32.4583 357.031 36.1875C357.031 38.6042 357.448 40.6562 358.281 42.3438C359.135 44.0312 360.417 45.0521 362.125 45.4062C363.5 45.0938 364.917 44.2812 366.375 42.9688C366.417 40.9062 366.438 37.2083 366.438 31.875V27.6562ZM380.312 48.6562C379.25 48.5729 378.438 48.4896 377.875 48.4062C377.333 48.3229 376.562 48.1771 375.562 47.9688C374.583 47.7396 373.844 47.4479 373.344 47.0938C372.865 46.7188 372.625 46.2604 372.625 45.7188C372.458 41.0729 372.375 26.9479 372.375 3.34375C372.167 2.96875 371.802 2.6875 371.281 2.5C368.51 3.83333 365.292 4.6875 361.625 5.0625C361.5 5.58333 361.5 6.07292 361.625 6.53125C364.438 6.67708 366.448 7.10417 367.656 7.8125C367.656 13.7083 367.677 18.6354 367.719 22.5938C365.573 21.9271 363.729 21.5938 362.188 21.5938C359.729 21.5938 357.552 22.0833 355.656 23.0625C353.781 24.0417 352.312 25.3333 351.25 26.9375C350.188 28.5208 349.385 30.1979 348.844 31.9688C348.323 33.7396 348.062 35.5521 348.062 37.4062C348.062 41.5729 348.99 44.8646 350.844 47.2812C352.698 49.6979 354.927 50.9062 357.531 50.9062C360.823 50.9062 364.167 49.2188 367.562 45.8438C367.562 47.5938 367.521 48.7188 367.438 49.2188C367.667 49.6979 367.927 50.0208 368.219 50.1875C368.906 50.1458 369.583 50.1042 370.25 50.0625C370.938 50.0208 371.479 49.9896 371.875 49.9688C372.292 49.9479 372.656 49.9375 372.969 49.9375C374.115 49.9375 376.562 50 380.312 50.125C380.604 49.7083 380.604 49.2188 380.312 48.6562ZM15.625 90.6875C17.8958 90.4167 20.2917 90.2812 22.8125 90.2812C25.5833 90.2812 28.0625 90.7188 30.25 91.5938C32.4583 92.4688 34.2396 93.5938 35.5938 94.9688C36.9688 96.3229 38.0938 97.9271 38.9688 99.7812C39.8438 101.635 40.4479 103.479 40.7812 105.312C41.1354 107.125 41.3125 108.99 41.3125 110.906C41.3125 117.219 39.5417 122.271 36 126.062C32.4583 129.854 27.3542 131.75 20.6875 131.75L15.5625 131.688C15.3542 123.042 15.25 116.583 15.25 112.312C15.25 104.583 15.375 97.375 15.625 90.6875ZM22.3438 135.281C15.3646 135.281 8.39583 135.365 1.4375 135.531C0.916667 134.094 0.916667 132.75 1.4375 131.5C5.95833 131.042 8.23958 130.427 8.28125 129.656C8.53125 123.115 8.65625 116.562 8.65625 110C8.65625 103.292 8.55208 97.4896 8.34375 92.5938C8.30208 91.8229 5.97917 91.2083 1.375 90.75C1.02083 89.4167 1.0625 88.0729 1.5 86.7188C4.0625 86.7604 12.0417 86.7812 25.4375 86.7812C28.3333 86.7812 30.9896 86.9583 33.4062 87.3125C35.8438 87.6667 38.3229 88.3854 40.8438 89.4688C43.3646 90.5312 45.4896 91.9271 47.2188 93.6562C48.9479 95.3854 50.3542 97.7188 51.4375 100.656C52.5208 103.594 53.0625 107.031 53.0625 110.969C53.0625 114.719 52.4271 118.042 51.1562 120.938C49.8854 123.833 48.2188 126.167 46.1562 127.938C44.1146 129.708 41.7083 131.167 38.9375 132.312C36.1667 133.438 33.4375 134.208 30.75 134.625C28.0625 135.062 25.2604 135.281 22.3438 135.281ZM20.4375 91.8125C20.1875 99.125 20.0625 105.958 20.0625 112.312C20.0625 117.479 20.1458 123.531 20.3125 130.469C26.875 130.302 31.8021 128.458 35.0938 124.938C38.3854 121.417 40.0312 116.74 40.0312 110.906C40.0312 108.635 39.7604 106.469 39.2188 104.406C38.6771 102.323 37.8125 100.302 36.625 98.3438C35.4375 96.3854 33.6979 94.8021 31.4062 93.5938C29.1354 92.3646 26.4583 91.7083 23.375 91.625C22.3542 91.625 21.375 91.6875 20.4375 91.8125ZM2.3125 134.188C6.79167 134.062 12.7292 134 20.125 134C22.7708 134 25.3229 133.802 27.7812 133.406C30.2604 132.99 32.7708 132.24 35.3125 131.156C37.8542 130.073 40.0521 128.698 41.9062 127.031C43.7604 125.365 45.2812 123.146 46.4688 120.375C47.6771 117.604 48.2812 114.448 48.2812 110.906C48.2812 95.6771 39.9167 88.0625 23.1875 88.0625C21.6458 88.0625 19.4583 88.0938 16.625 88.1562C13.7917 88.2188 11.2188 88.25 8.90625 88.25C6.61458 88.25 4.4375 88.1875 2.375 88.0625C2.20833 88.4375 2.20833 88.9271 2.375 89.5312C7.16667 89.9896 9.58333 90.9896 9.625 92.5312C9.83333 97.4271 9.9375 103.25 9.9375 110C9.9375 116.604 9.8125 123.177 9.5625 129.719C9.52083 131.26 7.10417 132.26 2.3125 132.719C2.10417 133.198 2.10417 133.688 2.3125 134.188ZM73.8438 107.625C75.5104 107.625 76.7188 108.167 77.4688 109.25C78.2188 110.312 78.5938 111.646 78.5938 113.25C78.5938 113.854 78.4896 114.542 78.2812 115.312H66.0938C66.7396 112.708 67.7812 110.781 69.2188 109.531C70.6771 108.26 72.2188 107.625 73.8438 107.625ZM65.7812 117.438H82.8125C83.1458 116.396 83.3125 115.323 83.3125 114.219C83.3125 111.781 82.6146 109.74 81.2188 108.094C79.8438 106.427 77.6458 105.594 74.625 105.594C70.6875 105.594 67.375 107.021 64.6875 109.875C62 112.729 60.6562 116.354 60.6562 120.75C60.6562 125.438 61.9375 128.969 64.5 131.344C67.0625 133.719 70.0729 134.906 73.5312 134.906C76.0938 134.906 78.4688 134.219 80.6562 132.844C82.8646 131.448 84.4792 129.354 85.5 126.562C85.2083 126.229 84.8021 126 84.2812 125.875C84.1979 126 83.9479 126.344 83.5312 126.906C83.1354 127.448 82.8438 127.844 82.6562 128.094C82.4688 128.323 82.125 128.667 81.625 129.125C81.1458 129.562 80.6771 129.885 80.2188 130.094C79.7812 130.302 79.2188 130.51 78.5312 130.719C77.8438 130.906 77.0938 131 76.2812 131C73.0729 131 70.5208 130.052 68.625 128.156C66.7292 126.24 65.7396 123.667 65.6562 120.438C65.6562 119.708 65.6979 118.708 65.7812 117.438ZM83.7812 124.406C85.0938 124.698 86.1562 125.354 86.9688 126.375C85.7812 129.625 83.9479 132.073 81.4688 133.719C78.9896 135.365 76.3438 136.188 73.5312 136.188C69.6979 136.188 66.375 134.896 63.5625 132.312C60.7708 129.729 59.375 125.875 59.375 120.75C59.375 116.104 60.8021 112.208 63.6562 109.062C66.5312 105.896 70.5938 104.312 75.8438 104.312C83.7812 104.312 87.75 107.615 87.75 114.219C87.75 115.51 87.4479 117.01 86.8438 118.719H70.0625V120.75C70.1667 123.271 70.8542 125.323 72.125 126.906C73.3958 128.469 75.1458 129.385 77.375 129.656C78.6875 129.531 79.7708 129.083 80.625 128.312C81.4792 127.542 82.5312 126.24 83.7812 124.406ZM77.3125 113.25C77.3125 110.958 76.5417 109.573 75 109.094C73.1667 109.656 71.8021 111.302 70.9062 114.031H77.25C77.25 113.948 77.2604 113.823 77.2812 113.656C77.3021 113.49 77.3125 113.354 77.3125 113.25ZM89.5625 105.125C96.0417 105.354 102.521 105.354 109 105.125C109.479 106.542 109.479 107.802 109 108.906C107.646 109.115 106.74 109.365 106.281 109.656C105.844 109.927 105.75 110.427 106 111.156L109.406 120.312L113.25 111.156C113.583 110.385 113.552 109.875 113.156 109.625C112.781 109.354 111.917 109.115 110.562 108.906C110.083 107.635 110.083 106.375 110.562 105.125C114.958 105.25 119.323 105.25 123.656 105.125C124.135 106.375 124.135 107.635 123.656 108.906C122.094 109.031 120.979 109.271 120.312 109.625C119.646 109.958 119.146 110.51 118.812 111.281L107.812 136.188H104.531L94.75 111.219C94.4375 110.49 93.8854 109.969 93.0938 109.656C92.3229 109.323 91.1458 109.073 89.5625 108.906C89.0833 107.635 89.0833 106.375 89.5625 105.125ZM108.062 106.281C102.208 106.49 96.3646 106.49 90.5312 106.281C90.3021 106.844 90.3021 107.333 90.5312 107.75C92.0938 107.938 93.2812 108.219 94.0938 108.594C94.9062 108.969 95.5312 109.698 95.9688 110.781L105.438 134.906H106.969L117.656 110.781C118.552 108.885 120.24 107.875 122.719 107.75C122.927 107.333 122.927 106.844 122.719 106.281C119.01 106.406 115.271 106.406 111.5 106.281C111.292 106.844 111.292 107.333 111.5 107.75C112.312 107.792 112.958 107.896 113.438 108.062C113.938 108.208 114.385 108.51 114.781 108.969C115.198 109.406 115.198 110.01 114.781 110.781L107.531 127.906L101.344 110.781C101.115 110.219 101.115 109.75 101.344 109.375C101.594 108.979 102.083 108.677 102.812 108.469C103.542 108.26 104.281 108.115 105.031 108.031C105.802 107.927 106.812 107.833 108.062 107.75C108.271 107.333 108.271 106.844 108.062 106.281ZM142.281 107.625C143.948 107.625 145.156 108.167 145.906 109.25C146.656 110.312 147.031 111.646 147.031 113.25C147.031 113.854 146.927 114.542 146.719 115.312H134.531C135.177 112.708 136.219 110.781 137.656 109.531C139.115 108.26 140.656 107.625 142.281 107.625ZM134.219 117.438H151.25C151.583 116.396 151.75 115.323 151.75 114.219C151.75 111.781 151.052 109.74 149.656 108.094C148.281 106.427 146.083 105.594 143.062 105.594C139.125 105.594 135.812 107.021 133.125 109.875C130.438 112.729 129.094 116.354 129.094 120.75C129.094 125.438 130.375 128.969 132.938 131.344C135.5 133.719 138.51 134.906 141.969 134.906C144.531 134.906 146.906 134.219 149.094 132.844C151.302 131.448 152.917 129.354 153.938 126.562C153.646 126.229 153.24 126 152.719 125.875C152.635 126 152.385 126.344 151.969 126.906C151.573 127.448 151.281 127.844 151.094 128.094C150.906 128.323 150.562 128.667 150.062 129.125C149.583 129.562 149.115 129.885 148.656 130.094C148.219 130.302 147.656 130.51 146.969 130.719C146.281 130.906 145.531 131 144.719 131C141.51 131 138.958 130.052 137.062 128.156C135.167 126.24 134.177 123.667 134.094 120.438C134.094 119.708 134.135 118.708 134.219 117.438ZM152.219 124.406C153.531 124.698 154.594 125.354 155.406 126.375C154.219 129.625 152.385 132.073 149.906 133.719C147.427 135.365 144.781 136.188 141.969 136.188C138.135 136.188 134.812 134.896 132 132.312C129.208 129.729 127.812 125.875 127.812 120.75C127.812 116.104 129.24 112.208 132.094 109.062C134.969 105.896 139.031 104.312 144.281 104.312C152.219 104.312 156.188 107.615 156.188 114.219C156.188 115.51 155.885 117.01 155.281 118.719H138.5V120.75C138.604 123.271 139.292 125.323 140.562 126.906C141.833 128.469 143.583 129.385 145.812 129.656C147.125 129.531 148.208 129.083 149.062 128.312C149.917 127.542 150.969 126.24 152.219 124.406ZM145.75 113.25C145.75 110.958 144.979 109.573 143.438 109.094C141.604 109.656 140.24 111.302 139.344 114.031H145.688C145.688 113.948 145.698 113.823 145.719 113.656C145.74 113.49 145.75 113.354 145.75 113.25ZM180.188 132.562C175.229 132.104 172.729 131.104 172.688 129.562C172.479 118.021 172.396 103.948 172.438 87.3438C172.271 87.0104 171.906 86.7292 171.344 86.5C168.448 87.875 165.438 88.7292 162.312 89.0625C162.188 89.5833 162.188 90.0729 162.312 90.5312C164.667 90.6771 166.458 91.1042 167.688 91.8125C167.854 107.479 167.833 120.062 167.625 129.562C167.583 131.104 165.812 132.104 162.312 132.562C162.104 133.083 162.104 133.594 162.312 134.094C167.146 133.927 173.104 133.927 180.188 134.094C180.396 133.594 180.396 133.083 180.188 132.562ZM181.312 131.406C181.667 132.698 181.667 133.958 181.312 135.188C173.292 135.021 166.573 135.021 161.156 135.188C160.823 133.958 160.823 132.698 161.156 131.406C164.573 131.073 166.302 130.438 166.344 129.5C166.594 117.271 166.615 104.969 166.406 92.5938C165.01 92.1562 163.26 91.875 161.156 91.75C160.698 90.5208 160.698 89.1979 161.156 87.7812C164.323 87.6146 167.865 86.6771 171.781 84.9688C174.052 85.1354 175.74 85.8229 176.844 87.0312C176.76 105.594 176.844 119.75 177.094 129.5C177.135 130.438 178.542 131.073 181.312 131.406ZM201.156 107.625C203.302 107.625 205 108.656 206.25 110.719C207.521 112.76 208.156 115.938 208.156 120.25C208.156 124.562 207.521 127.74 206.25 129.781C205 131.823 203.302 132.844 201.156 132.844C199.969 132.844 198.885 132.594 197.906 132.094C196.948 131.594 196.125 130.823 195.438 129.781C194.771 128.74 194.25 127.438 193.875 125.875C193.5 124.292 193.312 122.417 193.312 120.25C193.312 118.104 193.5 116.24 193.875 114.656C194.25 113.052 194.771 111.74 195.438 110.719C196.125 109.677 196.948 108.906 197.906 108.406C198.885 107.885 199.969 107.625 201.156 107.625ZM201.156 134.906C203.094 134.906 204.833 134.542 206.375 133.812C207.917 133.083 209.229 132.073 210.312 130.781C211.417 129.469 212.26 127.917 212.844 126.125C213.427 124.333 213.719 122.375 213.719 120.25C213.719 118.125 213.427 116.167 212.844 114.375C212.26 112.583 211.417 111.042 210.312 109.75C209.229 108.438 207.917 107.417 206.375 106.688C204.833 105.958 203.094 105.594 201.156 105.594C199.094 105.594 197.229 105.958 195.562 106.688C193.896 107.417 192.479 108.427 191.312 109.719C190.167 111.01 189.281 112.562 188.656 114.375C188.031 116.167 187.719 118.125 187.719 120.25C187.719 122.396 188.031 124.365 188.656 126.156C189.281 127.948 190.167 129.5 191.312 130.812C192.479 132.104 193.896 133.115 195.562 133.844C197.229 134.552 199.094 134.906 201.156 134.906ZM202.25 104.312C204.771 104.312 207.01 104.698 208.969 105.469C210.948 106.24 212.615 107.333 213.969 108.75C215.323 110.146 216.354 111.823 217.062 113.781C217.771 115.74 218.125 117.896 218.125 120.25C218.125 122.583 217.771 124.729 217.062 126.688C216.354 128.646 215.323 130.333 213.969 131.75C212.635 133.146 210.979 134.229 209 135C207.021 135.792 204.771 136.188 202.25 136.188C199.75 136.188 197.51 135.792 195.531 135C193.573 134.229 191.917 133.146 190.562 131.75C189.229 130.333 188.208 128.656 187.5 126.719C186.792 124.76 186.438 122.604 186.438 120.25C186.438 117.896 186.792 115.74 187.5 113.781C188.208 111.823 189.24 110.146 190.594 108.75C191.948 107.333 193.604 106.24 195.562 105.469C197.521 104.698 199.75 104.312 202.25 104.312ZM197.719 120.25C197.719 126.979 199.229 130.708 202.25 131.438C205.333 130.708 206.875 126.979 206.875 120.25C206.875 113.583 205.333 109.844 202.25 109.031C199.229 109.844 197.719 113.583 197.719 120.25ZM240.906 109.688C243.365 109.688 245.229 110.688 246.5 112.688C247.792 114.688 248.438 117.229 248.438 120.312C248.438 124.833 247.635 128.052 246.031 129.969C244.448 131.885 242.719 132.844 240.844 132.844C237.26 132.844 234.76 131.521 233.344 128.875V112.625C235.74 110.667 238.26 109.688 240.906 109.688ZM247.156 120.312C247.156 117.875 246.708 115.802 245.812 114.094C244.917 112.385 243.615 111.385 241.906 111.094C240.469 111.302 239.083 112 237.75 113.188V128.688C238.562 130.271 239.865 131.208 241.656 131.5C243.156 131.208 244.448 130.188 245.531 128.438C246.615 126.688 247.156 123.979 247.156 120.312ZM222.531 109.75H222.594C225.406 109.875 227.406 110.302 228.594 111.031C228.594 126.99 228.573 138.76 228.531 146.344C228.49 147.885 226.719 148.896 223.219 149.375C223.094 149.833 223.094 150.323 223.219 150.844C228.677 150.573 234.635 150.573 241.094 150.844C241.344 150.365 241.344 149.875 241.094 149.375C236.135 148.896 233.635 147.885 233.594 146.344L233.406 133.812C235.448 134.542 237.625 134.906 239.938 134.906C242.375 134.906 244.521 134.417 246.375 133.438C248.229 132.438 249.677 131.146 250.719 129.562C251.76 127.958 252.542 126.25 253.062 124.438C253.604 122.625 253.875 120.76 253.875 118.844C253.875 114.781 252.948 111.562 251.094 109.188C249.24 106.792 246.844 105.594 243.906 105.594C240.323 105.594 236.802 107.125 233.344 110.188V106.531C233.177 106.198 232.812 105.927 232.25 105.719C229.479 107.031 226.26 107.885 222.594 108.281C222.427 108.74 222.406 109.229 222.531 109.75ZM221.562 107C225.625 106.646 229.292 105.635 232.562 103.969C234.833 104.156 236.521 104.844 237.625 106.031C239.583 104.885 242.427 104.312 246.156 104.312C249.74 104.312 252.656 105.625 254.906 108.25C257.177 110.875 258.312 114.406 258.312 118.844C258.312 120.927 258 122.948 257.375 124.906C256.75 126.865 255.833 128.708 254.625 130.438C253.417 132.167 251.729 133.552 249.562 134.594C247.417 135.656 244.958 136.188 242.188 136.188C240.396 136.188 238.938 136.146 237.812 136.062L238 146.281C238.042 147.094 239.458 147.74 242.25 148.219C242.792 149.448 242.792 150.75 242.25 152.125C233.917 151.812 227.26 151.76 222.281 151.969C221.802 150.656 221.802 149.406 222.281 148.219C225.552 147.781 227.208 147.135 227.25 146.281L227.312 111.781C225.958 111.365 224.062 111.094 221.625 110.969C221.083 109.719 221.062 108.396 221.562 107ZM296.375 114.094C296.375 120.115 296.49 125.271 296.719 129.562C296.76 130.667 297.458 131.281 298.812 131.406C299.333 132.698 299.333 133.958 298.812 135.188C293.479 135.062 288.125 135.062 282.75 135.188C282.25 133.958 282.25 132.698 282.75 131.406C284.792 131.115 285.812 130.5 285.812 129.562L285.875 114.875C285.875 112.604 285.427 111.219 284.531 110.719C282.698 111.177 280.844 112.302 278.969 114.094C278.969 119.823 279.052 124.958 279.219 129.5C279.281 130.042 279.438 130.458 279.688 130.75C279.938 131.021 280.49 131.24 281.344 131.406C281.865 132.698 281.865 133.958 281.344 135.188C275.365 135.021 269.354 135.021 263.312 135.188C262.792 133.958 262.792 132.698 263.312 131.406C266.708 130.948 268.427 130.312 268.469 129.5C268.656 124.812 268.656 118.906 268.469 111.781C267.073 111.365 265.354 111.094 263.312 110.969C262.833 109.719 262.833 108.396 263.312 107C266.458 106.833 270 105.896 273.938 104.188C276.188 104.354 277.865 105.031 278.969 106.219V107.25C280.427 106.229 281.823 105.49 283.156 105.031C284.51 104.552 286.292 104.312 288.5 104.312C291.917 104.312 294.208 105.552 295.375 108.031C297.417 106.531 299.115 105.542 300.469 105.062C301.844 104.562 303.708 104.312 306.062 104.312C308.917 104.312 310.938 105.094 312.125 106.656C313.333 108.198 313.938 110.594 313.938 113.844C313.938 120.031 314.042 125.271 314.25 129.562C314.292 130.417 315.76 131.031 318.656 131.406C319.135 132.781 319.094 134.042 318.531 135.188C312.427 135.062 306.344 135.062 300.281 135.188C299.781 133.958 299.781 132.698 300.281 131.406C300.969 131.406 301.656 131.229 302.344 130.875C303.031 130.5 303.375 130.062 303.375 129.562L303.438 114.875C303.438 112.604 302.99 111.219 302.094 110.719C300.385 111.135 298.479 112.26 296.375 114.094ZM291.906 112.75C291.781 110.271 291.292 108.458 290.438 107.312C289.583 106.167 288.198 105.594 286.281 105.594C284.865 105.594 283.396 106 281.875 106.812C280.375 107.625 279.177 108.427 278.281 109.219C277.385 109.99 276.146 111.167 274.562 112.75V106.531C274.396 106.198 274.031 105.927 273.469 105.719C270.573 107.073 267.562 107.927 264.438 108.281C264.312 108.781 264.312 109.271 264.438 109.75C266.833 109.875 268.604 110.302 269.75 111.031C269.896 117.26 269.896 123.438 269.75 129.562C269.708 131.104 267.917 132.104 264.375 132.562C264.125 133.042 264.125 133.552 264.375 134.094C269.708 133.927 275.021 133.927 280.312 134.094C280.583 133.552 280.583 133.042 280.312 132.562C276.688 132.146 274.854 131.146 274.812 129.562C274.646 125.229 274.562 120.292 274.562 114.75C276.729 112.854 278.5 111.458 279.875 110.562C281.25 109.667 282.552 109.219 283.781 109.219C286.031 109.219 287.156 111.104 287.156 114.875L287.094 129.562C287.094 131.188 285.99 132.188 283.781 132.562C283.531 133.042 283.531 133.552 283.781 134.094C288.469 133.969 293.135 133.969 297.781 134.094C298.052 133.552 298.052 133.042 297.781 132.562C296.677 132.479 295.781 132.365 295.094 132.219C294.427 132.073 293.792 131.781 293.188 131.344C292.583 130.885 292.281 130.292 292.281 129.562L291.969 114.75C294.135 112.854 295.906 111.458 297.281 110.562C298.656 109.667 299.958 109.219 301.188 109.219C303.438 109.219 304.562 111.104 304.562 114.875L304.5 129.562C304.5 131.188 303.396 132.188 301.188 132.562C300.938 133.042 300.938 133.552 301.188 134.094C306.562 133.969 311.958 133.969 317.375 134.094C317.667 133.594 317.667 133.083 317.375 132.562C312.292 132.312 309.729 131.312 309.688 129.562L309.375 113.844C309.292 110.99 308.833 108.906 308 107.594C307.167 106.26 305.729 105.594 303.688 105.594C302.271 105.594 300.802 105.99 299.281 106.781C297.781 107.552 296.562 108.354 295.625 109.188C294.688 110.021 293.448 111.208 291.906 112.75ZM337.531 107.625C339.198 107.625 340.406 108.167 341.156 109.25C341.906 110.312 342.281 111.646 342.281 113.25C342.281 113.854 342.177 114.542 341.969 115.312H329.781C330.427 112.708 331.469 110.781 332.906 109.531C334.365 108.26 335.906 107.625 337.531 107.625ZM329.469 117.438H346.5C346.833 116.396 347 115.323 347 114.219C347 111.781 346.302 109.74 344.906 108.094C343.531 106.427 341.333 105.594 338.312 105.594C334.375 105.594 331.062 107.021 328.375 109.875C325.688 112.729 324.344 116.354 324.344 120.75C324.344 125.438 325.625 128.969 328.188 131.344C330.75 133.719 333.76 134.906 337.219 134.906C339.781 134.906 342.156 134.219 344.344 132.844C346.552 131.448 348.167 129.354 349.188 126.562C348.896 126.229 348.49 126 347.969 125.875C347.885 126 347.635 126.344 347.219 126.906C346.823 127.448 346.531 127.844 346.344 128.094C346.156 128.323 345.812 128.667 345.312 129.125C344.833 129.562 344.365 129.885 343.906 130.094C343.469 130.302 342.906 130.51 342.219 130.719C341.531 130.906 340.781 131 339.969 131C336.76 131 334.208 130.052 332.312 128.156C330.417 126.24 329.427 123.667 329.344 120.438C329.344 119.708 329.385 118.708 329.469 117.438ZM347.469 124.406C348.781 124.698 349.844 125.354 350.656 126.375C349.469 129.625 347.635 132.073 345.156 133.719C342.677 135.365 340.031 136.188 337.219 136.188C333.385 136.188 330.062 134.896 327.25 132.312C324.458 129.729 323.062 125.875 323.062 120.75C323.062 116.104 324.49 112.208 327.344 109.062C330.219 105.896 334.281 104.312 339.531 104.312C347.469 104.312 351.438 107.615 351.438 114.219C351.438 115.51 351.135 117.01 350.531 118.719H333.75V120.75C333.854 123.271 334.542 125.323 335.812 126.906C337.083 128.469 338.833 129.385 341.062 129.656C342.375 129.531 343.458 129.083 344.312 128.312C345.167 127.542 346.219 126.24 347.469 124.406ZM341 113.25C341 110.958 340.229 109.573 338.688 109.094C336.854 109.656 335.49 111.302 334.594 114.031H340.938C340.938 113.948 340.948 113.823 340.969 113.656C340.99 113.49 341 113.354 341 113.25ZM377.844 132.562C377.594 133.042 377.594 133.552 377.844 134.094C383.26 133.969 388.688 133.969 394.125 134.094C394.417 133.594 394.417 133.083 394.125 132.562C389.042 132.312 386.479 131.312 386.438 129.562L386.125 113.844C386.021 110.99 385.552 108.906 384.719 107.594C383.906 106.26 382.469 105.594 380.406 105.594C376.948 105.594 372.833 107.979 368.062 112.75V106.531C367.896 106.198 367.531 105.927 366.969 105.719C364.073 107.073 361.062 107.927 357.938 108.281C357.812 108.781 357.812 109.271 357.938 109.75C360.333 109.875 362.104 110.302 363.25 111.031C363.479 117.26 363.479 123.438 363.25 129.562C363.208 131.104 361.417 132.104 357.875 132.562C357.625 133.042 357.625 133.552 357.875 134.094C363.292 133.885 368.74 133.885 374.219 134.094C374.469 133.552 374.469 133.042 374.219 132.562C370.323 132.146 368.354 131.146 368.312 129.562C368.146 125.229 368.062 120.292 368.062 114.75C372.25 111.062 375.531 109.219 377.906 109.219C380.177 109.219 381.312 111.104 381.312 114.875L381.25 129.562C381.25 130.583 380.938 131.302 380.312 131.719C379.688 132.115 378.865 132.396 377.844 132.562ZM376.844 135.188C376.323 133.958 376.323 132.698 376.844 131.406C377.51 131.406 378.198 131.229 378.906 130.875C379.615 130.5 379.969 130.062 379.969 129.562L380.031 114.875C380.031 112.604 379.583 111.219 378.688 110.719C377.146 111.094 375.073 112.219 372.469 114.094C372.469 119.823 372.552 124.958 372.719 129.5C372.823 130.604 373.656 131.24 375.219 131.406C375.74 132.698 375.74 133.958 375.219 135.188C369.115 134.979 362.979 134.979 356.812 135.188C356.292 133.958 356.292 132.698 356.812 131.406C360.208 130.948 361.927 130.312 361.969 129.5C362.198 123.625 362.198 117.719 361.969 111.781C360.573 111.365 358.854 111.094 356.812 110.969C356.333 109.719 356.333 108.396 356.812 107C359.958 106.833 363.5 105.896 367.438 104.188C369.688 104.354 371.365 105.031 372.469 106.219V107.25C375.427 105.292 378.823 104.312 382.656 104.312C385.469 104.312 387.469 105.083 388.656 106.625C389.865 108.146 390.49 110.552 390.531 113.844C390.615 122.115 390.719 127.354 390.844 129.562C390.885 130.417 392.354 131.031 395.25 131.406C395.729 132.781 395.688 134.042 395.125 135.188C389.021 135.062 382.927 135.062 376.844 135.188ZM409.375 109.375H421.656C421.948 108.562 421.948 107.812 421.656 107.125H409.375V100.281C408.854 100.052 408.333 100.052 407.812 100.281C407.042 101.719 406.188 102.979 405.25 104.062C404.312 105.125 403.521 105.875 402.875 106.312C402.25 106.729 401.344 107.271 400.156 107.938C400.01 108.375 400.01 108.854 400.156 109.375H403.969V125.75C403.969 131.854 406.49 134.906 411.531 134.906C413.677 134.906 415.656 134.354 417.469 133.25C419.281 132.125 420.635 130.75 421.531 129.125C421.344 128.667 421 128.417 420.5 128.375C418.542 130.125 416.646 131 414.812 131C411.188 131 409.375 129.354 409.375 126.062V109.375ZM420.125 127.031C421.438 127.198 422.375 127.917 422.938 129.188C421.854 131.167 420.281 132.823 418.219 134.156C416.156 135.51 413.927 136.188 411.531 136.188C405.656 136.188 402.719 132.708 402.719 125.75V110.625H398.875C398.562 109.521 398.562 108.375 398.875 107.188C400.146 106.458 401.115 105.865 401.781 105.406C402.448 104.927 403.281 104.156 404.281 103.094C405.281 102.031 406.167 100.75 406.938 99.25C408.896 98.4375 411.177 98.4792 413.781 99.375V105.844H422.875C423.542 107.385 423.542 108.979 422.875 110.625H413.781V126.062C413.781 128.062 414.5 129.24 415.938 129.594C417.188 129.323 418.583 128.469 420.125 127.031Z" fill="#00E217"/>
</svg>
