<svg width="618" height="350" viewBox="0 0 618 350" fill="none" xmlns="http://www.w3.org/2000/svg">
<path d="M95.4844 59.6094L51.1406 40.4844L95.4844 21.5938L93.1875 16.4844L37.5938 40.5781L93.1875 64.6719L95.4844 59.6094ZM59.3906 40.4844L101.438 58.625L97.5 67.2031H94.1719L32.8125 40.5781L94.1719 14H97.5L101.438 22.5312L59.3906 40.4844ZM141.891 71.8438C141.516 72.5625 141.516 73.3281 141.891 74.1406C150.016 73.9531 158.141 73.9531 166.266 74.1406C166.734 73.3906 166.734 72.625 166.266 71.8438C158.672 71.4688 154.844 69.9688 154.781 67.3438L154.266 43.7656C154.141 39.4844 153.453 36.3594 152.203 34.3906C150.953 32.3906 148.797 31.3906 145.734 31.3906C140.547 31.3906 134.375 34.9688 127.219 42.125V3.82812C126.969 3.32812 126.422 2.90625 125.578 2.5625C121.234 4.625 116.719 5.90625 112.031 6.40625C111.844 7.1875 111.844 7.92188 112.031 8.60938C115.625 8.79688 118.281 9.4375 120 10.5312V67.3438C119.938 69.6562 117.25 71.1562 111.938 71.8438C111.562 72.5625 111.562 73.3281 111.938 74.1406C120.125 73.8281 128.281 73.8281 136.406 74.1406C136.812 73.3281 136.812 72.5625 136.406 71.8438C130.594 71.2188 127.656 69.7188 127.594 67.3438C127.344 60.6875 127.219 53.2812 127.219 45.125C133.469 39.5938 138.391 36.8281 141.984 36.8281C145.391 36.8281 147.094 39.6562 147.094 45.3125L147 67.3438C147 68.875 146.531 69.9531 145.594 70.5781C144.656 71.1719 143.422 71.5938 141.891 71.8438ZM140.344 75.7812C139.594 73.9375 139.594 72.0469 140.344 70.1094C141.375 70.1094 142.422 69.8438 143.484 69.3125C144.547 68.75 145.078 68.0938 145.078 67.3438L145.172 45.3125C145.172 41.9062 144.5 39.8281 143.156 39.0781C140.844 39.6406 137.734 41.3281 133.828 44.1406C133.828 52.5781 133.953 60.2812 134.203 67.25C134.328 68.9062 135.578 69.8594 137.953 70.1094C138.734 72.0469 138.734 73.9375 137.953 75.7812C128.797 75.4688 119.578 75.4688 110.297 75.7812C109.547 73.9375 109.547 72.0469 110.297 70.1094C115.422 69.4219 118.016 68.4688 118.078 67.25V11.7031C115.984 11.0469 113.391 10.625 110.297 10.4375C109.609 8.59375 109.609 6.60938 110.297 4.48438C115.047 4.23438 120.359 2.82813 126.234 0.265625C129.641 0.515625 132.172 1.54687 133.828 3.35938V33.875C138.234 30.9375 143.328 29.4688 149.109 29.4688C153.328 29.4688 156.328 30.625 158.109 32.9375C159.922 35.2188 160.859 38.8281 160.922 43.7656C161.047 56.0156 161.203 63.875 161.391 67.3438C161.453 68.625 163.656 69.5469 168 70.1094C168.719 72.1719 168.656 74.0625 167.812 75.7812C158.656 75.5938 149.5 75.5938 140.344 75.7812ZM188.906 37.0625H207.328C207.766 35.8438 207.766 34.7188 207.328 33.6875H188.906V23.4219C188.125 23.0781 187.344 23.0781 186.562 23.4219C185.406 25.5781 184.125 27.4688 182.719 29.0938C181.312 30.6875 180.125 31.8125 179.156 32.4688C178.219 33.0938 176.859 33.9062 175.078 34.9062C174.859 35.5625 174.859 36.2812 175.078 37.0625H180.797V61.625C180.797 70.7812 184.578 75.3594 192.141 75.3594C195.359 75.3594 198.328 74.5312 201.047 72.875C203.766 71.1875 205.797 69.125 207.141 66.6875C206.859 66 206.344 65.625 205.594 65.5625C202.656 68.1875 199.812 69.5 197.062 69.5C191.625 69.5 188.906 67.0312 188.906 62.0938V37.0625ZM205.031 63.5469C207 63.7969 208.406 64.875 209.25 66.7812C207.625 69.75 205.266 72.2344 202.172 74.2344C199.078 76.2656 195.734 77.2812 192.141 77.2812C183.328 77.2812 178.922 72.0625 178.922 61.625V38.9375H173.156C172.688 37.2812 172.688 35.5625 173.156 33.7812C175.062 32.6875 176.516 31.7969 177.516 31.1094C178.516 30.3906 179.766 29.2344 181.266 27.6406C182.766 26.0469 184.094 24.125 185.25 21.875C188.188 20.6562 191.609 20.7188 195.516 22.0625V31.7656H209.156C210.156 34.0781 210.156 36.4688 209.156 38.9375H195.516V62.0938C195.516 65.0938 196.594 66.8594 198.75 67.3906C200.625 66.9844 202.719 65.7031 205.031 63.5469ZM265.406 44.1406C265.406 53.1719 265.578 60.9062 265.922 67.3438C265.984 69 267.031 69.9219 269.062 70.1094C269.844 72.0469 269.844 73.9375 269.062 75.7812C261.062 75.5938 253.031 75.5938 244.969 75.7812C244.219 73.9375 244.219 72.0469 244.969 70.1094C248.031 69.6719 249.562 68.75 249.562 67.3438L249.656 45.3125C249.656 41.9062 248.984 39.8281 247.641 39.0781C244.891 39.7656 242.109 41.4531 239.297 44.1406C239.297 52.7344 239.422 60.4375 239.672 67.25C239.766 68.0625 240 68.6875 240.375 69.125C240.75 69.5312 241.578 69.8594 242.859 70.1094C243.641 72.0469 243.641 73.9375 242.859 75.7812C233.891 75.5312 224.875 75.5312 215.812 75.7812C215.031 73.9375 215.031 72.0469 215.812 70.1094C220.906 69.4219 223.484 68.4688 223.547 67.25C223.828 60.2188 223.828 51.3594 223.547 40.6719C221.453 40.0469 218.875 39.6406 215.812 39.4531C215.094 37.5781 215.094 35.5938 215.812 33.5C220.531 33.25 225.844 31.8438 231.75 29.2812C235.125 29.5312 237.641 30.5469 239.297 32.3281V33.875C241.484 32.3438 243.578 31.2344 245.578 30.5469C247.609 29.8281 250.281 29.4688 253.594 29.4688C258.719 29.4688 262.156 31.3281 263.906 35.0469C266.969 32.7969 269.516 31.3125 271.547 30.5938C273.609 29.8438 276.406 29.4688 279.938 29.4688C284.219 29.4688 287.25 30.6406 289.031 32.9844C290.844 35.2969 291.75 38.8906 291.75 43.7656C291.75 53.0469 291.906 60.9062 292.219 67.3438C292.281 68.625 294.484 69.5469 298.828 70.1094C299.547 72.1719 299.484 74.0625 298.641 75.7812C289.484 75.5938 280.359 75.5938 271.266 75.7812C270.516 73.9375 270.516 72.0469 271.266 70.1094C272.297 70.1094 273.328 69.8438 274.359 69.3125C275.391 68.75 275.906 68.0938 275.906 67.3438L276 45.3125C276 41.9062 275.328 39.8281 273.984 39.0781C271.422 39.7031 268.562 41.3906 265.406 44.1406ZM258.703 42.125C258.516 38.4062 257.781 35.6875 256.5 33.9688C255.219 32.25 253.141 31.3906 250.266 31.3906C248.141 31.3906 245.938 32 243.656 33.2188C241.406 34.4375 239.609 35.6406 238.266 36.8281C236.922 37.9844 235.062 39.75 232.688 42.125V32.7969C232.438 32.2969 231.891 31.8906 231.047 31.5781C226.703 33.6094 222.188 34.8906 217.5 35.4219C217.312 36.1719 217.312 36.9062 217.5 37.625C221.094 37.8125 223.75 38.4531 225.469 39.5469C225.688 48.8906 225.688 58.1562 225.469 67.3438C225.406 69.6562 222.719 71.1562 217.406 71.8438C217.031 72.5625 217.031 73.3281 217.406 74.1406C225.406 73.8906 233.375 73.8906 241.312 74.1406C241.719 73.3281 241.719 72.5625 241.312 71.8438C235.875 71.2188 233.125 69.7188 233.062 67.3438C232.812 60.8438 232.688 53.4375 232.688 45.125C235.938 42.2812 238.594 40.1875 240.656 38.8438C242.719 37.5 244.672 36.8281 246.516 36.8281C249.891 36.8281 251.578 39.6562 251.578 45.3125L251.484 67.3438C251.484 69.7812 249.828 71.2812 246.516 71.8438C246.141 72.5625 246.141 73.3281 246.516 74.1406C253.547 73.9531 260.547 73.9531 267.516 74.1406C267.922 73.3281 267.922 72.5625 267.516 71.8438C265.859 71.7188 264.516 71.5469 263.484 71.3281C262.484 71.1094 261.531 70.6719 260.625 70.0156C259.719 69.3281 259.266 68.4375 259.266 67.3438L258.797 45.125C262.047 42.2812 264.703 40.1875 266.766 38.8438C268.828 37.5 270.781 36.8281 272.625 36.8281C276 36.8281 277.688 39.6562 277.688 45.3125L277.594 67.3438C277.594 69.7812 275.938 71.2812 272.625 71.8438C272.25 72.5625 272.25 73.3281 272.625 74.1406C280.688 73.9531 288.781 73.9531 296.906 74.1406C297.344 73.3906 297.344 72.625 296.906 71.8438C289.281 71.4688 285.438 69.9688 285.375 67.3438L284.906 43.7656C284.781 39.4844 284.094 36.3594 282.844 34.3906C281.594 32.3906 279.438 31.3906 276.375 31.3906C274.25 31.3906 272.047 31.9844 269.766 33.1719C267.516 34.3281 265.688 35.5312 264.281 36.7812C262.875 38.0312 261.016 39.8125 258.703 42.125ZM332.156 71.8438C324.719 71.1562 320.969 69.6562 320.906 67.3438C320.594 50.0312 320.469 28.9219 320.531 4.01562C320.281 3.51562 319.734 3.09375 318.891 2.75C314.547 4.8125 310.031 6.09375 305.344 6.59375C305.156 7.375 305.156 8.10938 305.344 8.79688C308.875 9.01562 311.562 9.65625 313.406 10.7188C313.656 34.2188 313.625 53.0938 313.312 67.3438C313.25 69.6562 310.594 71.1562 305.344 71.8438C305.031 72.625 305.031 73.3906 305.344 74.1406C312.594 73.8906 321.531 73.8906 332.156 74.1406C332.469 73.3906 332.469 72.625 332.156 71.8438ZM333.844 70.1094C334.375 72.0469 334.375 73.9375 333.844 75.7812C321.812 75.5312 311.734 75.5312 303.609 75.7812C303.109 73.9375 303.109 72.0469 303.609 70.1094C308.734 69.6094 311.328 68.6562 311.391 67.25C311.766 48.9062 311.797 30.4531 311.484 11.8906C309.391 11.2344 306.766 10.8125 303.609 10.625C302.922 8.78125 302.922 6.79688 303.609 4.67188C308.359 4.42188 313.672 3.01563 319.547 0.453125C322.953 0.703125 325.484 1.73437 327.141 3.54688C327.016 31.3906 327.141 52.625 327.516 67.25C327.578 68.6562 329.688 69.6094 333.844 70.1094ZM389.719 40.4844L345.375 59.6094L347.672 64.6719L403.266 40.5781L347.672 16.4844L345.375 21.5938L389.719 40.4844ZM342.797 58.625L384.938 40.4844L342.797 22.5312L346.734 14H350.109L411.422 40.5781L350.109 67.2031H346.734L342.797 58.625ZM161.016 168.469C161.016 170.375 160.219 171.562 158.625 172.031C158.188 172.844 158.188 173.578 158.625 174.234C160.219 174.234 161.562 173.688 162.656 172.594C163.75 171.5 164.297 170.125 164.297 168.469C164.297 165.531 162.922 163.125 160.172 161.25C157.422 159.344 153.828 158.391 149.391 158.391C143.203 158.391 138.016 160.484 133.828 164.672C129.672 168.859 127.594 174.344 127.594 181.125C127.594 188.156 129.531 193.453 133.406 197.016C137.281 200.578 141.844 202.359 147.094 202.359C150.938 202.359 154.5 201.328 157.781 199.266C161.094 197.172 163.516 194.031 165.047 189.844C164.609 189.344 164 189 163.219 188.812C162.406 189.969 161.734 190.828 161.203 191.391C160.703 191.922 159.875 192.688 158.719 193.688C157.562 194.656 156.266 195.375 154.828 195.844C153.391 196.281 151.812 196.5 150.094 196.5C145.219 196.5 141.641 195.078 139.359 192.234C137.109 189.359 135.984 185.656 135.984 181.125C135.984 168 140.453 161.438 149.391 161.438C152.984 161.438 155.812 162.031 157.875 163.219C159.969 164.406 161.016 166.156 161.016 168.469ZM162.375 186.984C164.469 187.234 166.094 188.094 167.25 189.562C165.469 194.438 162.719 198.109 159 200.578C155.281 203.047 151.312 204.281 147.094 204.281C141.406 204.281 136.406 202.344 132.094 198.469C127.812 194.594 125.672 188.812 125.672 181.125C125.672 173.781 127.922 167.844 132.422 163.312C136.953 158.75 142.609 156.469 149.391 156.469C154.391 156.469 158.438 157.594 161.531 159.844C164.656 162.062 166.219 164.938 166.219 168.469C166.219 170.625 165.484 172.344 164.016 173.625C162.578 174.906 160.781 175.547 158.625 175.547C154.719 175.547 152.766 173.828 152.766 170.391C152.766 168.203 154.109 166.625 156.797 165.656C155.016 164.438 153.156 163.734 151.219 163.547C145.469 164.391 142.594 170.25 142.594 181.125C142.594 189.312 145.625 193.766 151.688 194.484C155.344 194.016 158.906 191.516 162.375 186.984ZM203.484 198.844C196.047 198.156 192.297 196.656 192.234 194.344C191.922 177.031 191.797 155.922 191.859 131.016C191.609 130.516 191.062 130.094 190.219 129.75C185.875 131.812 181.359 133.094 176.672 133.594C176.484 134.375 176.484 135.109 176.672 135.797C180.203 136.016 182.891 136.656 184.734 137.719C184.984 161.219 184.953 180.094 184.641 194.344C184.578 196.656 181.922 198.156 176.672 198.844C176.359 199.625 176.359 200.391 176.672 201.141C183.922 200.891 192.859 200.891 203.484 201.141C203.797 200.391 203.797 199.625 203.484 198.844ZM205.172 197.109C205.703 199.047 205.703 200.938 205.172 202.781C193.141 202.531 183.062 202.531 174.938 202.781C174.438 200.938 174.438 199.047 174.938 197.109C180.062 196.609 182.656 195.656 182.719 194.25C183.094 175.906 183.125 157.453 182.812 138.891C180.719 138.234 178.094 137.812 174.938 137.625C174.25 135.781 174.25 133.797 174.938 131.672C179.688 131.422 185 130.016 190.875 127.453C194.281 127.703 196.812 128.734 198.469 130.547C198.344 158.391 198.469 179.625 198.844 194.25C198.906 195.656 201.016 196.609 205.172 197.109ZM234.562 161.438C237.062 161.438 238.875 162.25 240 163.875C241.125 165.469 241.688 167.469 241.688 169.875C241.688 170.781 241.531 171.812 241.219 172.969H222.938C223.906 169.062 225.469 166.172 227.625 164.297C229.812 162.391 232.125 161.438 234.562 161.438ZM222.469 176.156H248.016C248.516 174.594 248.766 172.984 248.766 171.328C248.766 167.672 247.719 164.609 245.625 162.141C243.562 159.641 240.266 158.391 235.734 158.391C229.828 158.391 224.859 160.531 220.828 164.812C216.797 169.094 214.781 174.531 214.781 181.125C214.781 188.156 216.703 193.453 220.547 197.016C224.391 200.578 228.906 202.359 234.094 202.359C237.938 202.359 241.5 201.328 244.781 199.266C248.094 197.172 250.516 194.031 252.047 189.844C251.609 189.344 251 189 250.219 188.812C250.094 189 249.719 189.516 249.094 190.359C248.5 191.172 248.062 191.766 247.781 192.141C247.5 192.484 246.984 193 246.234 193.688C245.516 194.344 244.812 194.828 244.125 195.141C243.469 195.453 242.625 195.766 241.594 196.078C240.562 196.359 239.438 196.5 238.219 196.5C233.406 196.5 229.578 195.078 226.734 192.234C223.891 189.359 222.406 185.5 222.281 180.656C222.281 179.562 222.344 178.062 222.469 176.156ZM249.469 186.609C251.438 187.047 253.031 188.031 254.25 189.562C252.469 194.438 249.719 198.109 246 200.578C242.281 203.047 238.312 204.281 234.094 204.281C228.344 204.281 223.359 202.344 219.141 198.469C214.953 194.594 212.859 188.812 212.859 181.125C212.859 174.156 215 168.312 219.281 163.594C223.594 158.844 229.688 156.469 237.562 156.469C249.469 156.469 255.422 161.422 255.422 171.328C255.422 173.266 254.969 175.516 254.062 178.078H228.891V181.125C229.047 184.906 230.078 187.984 231.984 190.359C233.891 192.703 236.516 194.078 239.859 194.484C241.828 194.297 243.453 193.625 244.734 192.469C246.016 191.312 247.594 189.359 249.469 186.609ZM239.766 169.875C239.766 166.438 238.609 164.359 236.297 163.641C233.547 164.484 231.5 166.953 230.156 171.047H239.672C239.672 170.922 239.688 170.734 239.719 170.484C239.75 170.234 239.766 170.031 239.766 169.875ZM275.391 166.922C276.859 167.172 278.016 167.75 278.859 168.656C279.734 169.531 280.172 170.656 280.172 172.031C280.172 173.688 279.625 175.062 278.531 176.156C277.438 177.219 276 177.75 274.219 177.75C272.375 177.75 270.703 177.094 269.203 175.781C267.703 174.469 266.953 172.609 266.953 170.203C266.953 166.109 268.891 162.797 272.766 160.266C276.672 157.734 281.766 156.469 288.047 156.469C294.016 156.469 298.203 157.672 300.609 160.078C303.047 162.453 304.266 166.469 304.266 172.125V188.531L307.266 188.438C309.828 188.625 311.609 189.844 312.609 192.094L311.109 194.672C310.141 196.141 309.328 197.281 308.672 198.094C308.047 198.875 307.141 199.766 305.953 200.766C304.766 201.766 303.375 202.484 301.781 202.922C300.188 203.359 298.328 203.578 296.203 203.578C293.578 203.578 291.594 202.594 290.25 200.625C286.875 203.062 282.469 204.281 277.031 204.281C274.656 204.281 272.625 203.906 270.938 203.156C269.281 202.438 268.062 201.469 267.281 200.25C266.531 199.031 266 197.891 265.688 196.828C265.375 195.766 265.219 194.688 265.219 193.594C265.219 189 266.766 185.562 269.859 183.281C272.953 181 279.203 178.656 288.609 176.25V171.141C288.609 168.641 288.078 166.812 287.016 165.656C285.984 164.5 284.641 163.922 282.984 163.922C279.453 163.922 276.922 164.922 275.391 166.922ZM290.531 180.656V190.453C287.531 194.422 284.469 196.406 281.344 196.406C279.531 196.406 278.047 195.969 276.891 195.094C275.766 194.219 275.203 192.984 275.203 191.391C275.203 188.828 276.25 186.719 278.344 185.062C280.469 183.406 284.531 181.938 290.531 180.656ZM288.609 189.844V184.125C284.078 185.781 281.812 188.203 281.812 191.391C281.812 192.734 282.297 193.672 283.266 194.203C284.922 193.609 286.703 192.156 288.609 189.844ZM274.219 173.625C273.125 173.625 272.359 172.828 271.922 171.234C271.297 168.672 272.062 166.438 274.219 164.531C276.344 162.656 279.547 161.719 283.828 161.719C285.859 161.719 287.484 162.516 288.703 164.109C289.922 165.672 290.531 168.016 290.531 171.141V177.656C281.312 180.031 275.109 182.281 271.922 184.406C268.734 186.5 267.141 189.562 267.141 193.594C267.141 195.719 267.859 197.719 269.297 199.594C270.734 201.438 273.312 202.359 277.031 202.359C278.5 202.359 279.875 202.125 281.156 201.656C282.469 201.188 283.812 200.438 285.188 199.406C286.594 198.344 287.453 197.672 287.766 197.391C288.078 197.109 288.594 196.625 289.312 195.938C290.062 195.219 290.469 194.828 290.531 194.766C290.938 199.359 292.828 201.656 296.203 201.656C297.047 201.656 298.016 201.438 299.109 201C300.203 200.562 301.297 199.703 302.391 198.422C303.516 197.141 304.219 196.297 304.5 195.891C304.812 195.453 305.266 194.781 305.859 193.875C306.453 192.938 306.891 192.297 307.172 191.953C306.766 191.078 305.984 190.578 304.828 190.453C303.109 193.078 301.359 194.359 299.578 194.297C298.297 194.234 297.656 193.328 297.656 191.578V172.125C297.656 167.125 296.672 163.594 294.703 161.531C292.766 159.438 289.422 158.391 284.672 158.391C280.391 158.391 276.672 159.5 273.516 161.719C270.391 163.906 268.828 166.734 268.828 170.203C268.828 171.984 269.375 173.375 270.469 174.375C271.562 175.344 272.812 175.828 274.219 175.828C274.656 175.203 274.656 174.469 274.219 173.625ZM348.75 198.844C348.375 199.562 348.375 200.328 348.75 201.141C356.875 200.953 365.016 200.953 373.172 201.141C373.609 200.391 373.609 199.625 373.172 198.844C365.547 198.469 361.703 196.969 361.641 194.344L361.172 170.766C361.016 166.484 360.312 163.359 359.062 161.391C357.844 159.391 355.688 158.391 352.594 158.391C347.406 158.391 341.234 161.969 334.078 169.125V159.797C333.828 159.297 333.281 158.891 332.438 158.578C328.094 160.609 323.578 161.891 318.891 162.422C318.703 163.172 318.703 163.906 318.891 164.625C322.484 164.812 325.141 165.453 326.859 166.547C327.203 175.891 327.203 185.156 326.859 194.344C326.797 196.656 324.109 198.156 318.797 198.844C318.422 199.562 318.422 200.328 318.797 201.141C326.922 200.828 335.094 200.828 343.312 201.141C343.688 200.328 343.688 199.562 343.312 198.844C337.469 198.219 334.516 196.719 334.453 194.344C334.203 187.844 334.078 180.438 334.078 172.125C340.359 166.594 345.281 163.828 348.844 163.828C352.25 163.828 353.953 166.656 353.953 172.312L353.859 194.344C353.859 195.875 353.391 196.953 352.453 197.578C351.516 198.172 350.281 198.594 348.75 198.844ZM347.25 202.781C346.469 200.938 346.469 199.047 347.25 197.109C348.25 197.109 349.281 196.844 350.344 196.312C351.406 195.75 351.938 195.094 351.938 194.344L352.031 172.312C352.031 168.906 351.359 166.828 350.016 166.078C347.703 166.641 344.594 168.328 340.688 171.141C340.688 179.734 340.812 187.438 341.062 194.25C341.219 195.906 342.469 196.859 344.812 197.109C345.594 199.047 345.594 200.938 344.812 202.781C335.656 202.469 326.453 202.469 317.203 202.781C316.422 200.938 316.422 199.047 317.203 197.109C322.297 196.422 324.875 195.469 324.938 194.25C325.281 185.438 325.281 176.578 324.938 167.672C322.844 167.047 320.266 166.641 317.203 166.453C316.484 164.578 316.484 162.594 317.203 160.5C321.922 160.25 327.234 158.844 333.141 156.281C336.516 156.531 339.031 157.547 340.688 159.328V160.875C345.125 157.938 350.219 156.469 355.969 156.469C360.188 156.469 363.188 157.625 364.969 159.938C366.781 162.219 367.719 165.828 367.781 170.766C367.906 183.172 368.062 191.031 368.25 194.344C368.312 195.625 370.516 196.547 374.859 197.109C375.578 199.172 375.516 201.062 374.672 202.781C365.516 202.594 356.375 202.594 347.25 202.781ZM441.891 168.469C441.891 170.375 441.094 171.562 439.5 172.031C439.062 172.844 439.062 173.578 439.5 174.234C441.094 174.234 442.438 173.688 443.531 172.594C444.625 171.5 445.172 170.125 445.172 168.469C445.172 165.531 443.797 163.125 441.047 161.25C438.297 159.344 434.703 158.391 430.266 158.391C424.078 158.391 418.891 160.484 414.703 164.672C410.547 168.859 408.469 174.344 408.469 181.125C408.469 188.156 410.406 193.453 414.281 197.016C418.156 200.578 422.719 202.359 427.969 202.359C431.812 202.359 435.375 201.328 438.656 199.266C441.969 197.172 444.391 194.031 445.922 189.844C445.484 189.344 444.875 189 444.094 188.812C443.281 189.969 442.609 190.828 442.078 191.391C441.578 191.922 440.75 192.688 439.594 193.688C438.438 194.656 437.141 195.375 435.703 195.844C434.266 196.281 432.688 196.5 430.969 196.5C426.094 196.5 422.516 195.078 420.234 192.234C417.984 189.359 416.859 185.656 416.859 181.125C416.859 168 421.328 161.438 430.266 161.438C433.859 161.438 436.688 162.031 438.75 163.219C440.844 164.406 441.891 166.156 441.891 168.469ZM443.25 186.984C445.344 187.234 446.969 188.094 448.125 189.562C446.344 194.438 443.594 198.109 439.875 200.578C436.156 203.047 432.188 204.281 427.969 204.281C422.281 204.281 417.281 202.344 412.969 198.469C408.688 194.594 406.547 188.812 406.547 181.125C406.547 173.781 408.797 167.844 413.297 163.312C417.828 158.75 423.484 156.469 430.266 156.469C435.266 156.469 439.312 157.594 442.406 159.844C445.531 162.062 447.094 164.938 447.094 168.469C447.094 170.625 446.359 172.344 444.891 173.625C443.453 174.906 441.656 175.547 439.5 175.547C435.594 175.547 433.641 173.828 433.641 170.391C433.641 168.203 434.984 166.625 437.672 165.656C435.891 164.438 434.031 163.734 432.094 163.547C426.344 164.391 423.469 170.25 423.469 181.125C423.469 189.312 426.5 193.766 432.562 194.484C436.219 194.016 439.781 191.516 443.25 186.984ZM479.719 161.438C482.938 161.438 485.484 162.984 487.359 166.078C489.266 169.141 490.219 173.906 490.219 180.375C490.219 186.844 489.266 191.609 487.359 194.672C485.484 197.734 482.938 199.266 479.719 199.266C477.938 199.266 476.312 198.891 474.844 198.141C473.406 197.391 472.172 196.234 471.141 194.672C470.141 193.109 469.359 191.156 468.797 188.812C468.234 186.438 467.953 183.625 467.953 180.375C467.953 177.156 468.234 174.359 468.797 171.984C469.359 169.578 470.141 167.609 471.141 166.078C472.172 164.516 473.406 163.359 474.844 162.609C476.312 161.828 477.938 161.438 479.719 161.438ZM479.719 202.359C482.625 202.359 485.234 201.812 487.547 200.719C489.859 199.625 491.828 198.109 493.453 196.172C495.109 194.203 496.375 191.875 497.25 189.188C498.125 186.5 498.562 183.562 498.562 180.375C498.562 177.188 498.125 174.25 497.25 171.562C496.375 168.875 495.109 166.562 493.453 164.625C491.828 162.656 489.859 161.125 487.547 160.031C485.234 158.938 482.625 158.391 479.719 158.391C476.625 158.391 473.828 158.938 471.328 160.031C468.828 161.125 466.703 162.641 464.953 164.578C463.234 166.516 461.906 168.844 460.969 171.562C460.031 174.25 459.562 177.188 459.562 180.375C459.562 183.594 460.031 186.547 460.969 189.234C461.906 191.922 463.234 194.25 464.953 196.219C466.703 198.156 468.828 199.672 471.328 200.766C473.828 201.828 476.625 202.359 479.719 202.359ZM481.359 156.469C485.141 156.469 488.5 157.047 491.438 158.203C494.406 159.359 496.906 161 498.938 163.125C500.969 165.219 502.516 167.734 503.578 170.672C504.641 173.609 505.172 176.844 505.172 180.375C505.172 183.875 504.641 187.094 503.578 190.031C502.516 192.969 500.969 195.5 498.938 197.625C496.938 199.719 494.453 201.344 491.484 202.5C488.516 203.688 485.141 204.281 481.359 204.281C477.609 204.281 474.25 203.688 471.281 202.5C468.344 201.344 465.859 199.719 463.828 197.625C461.828 195.5 460.297 192.984 459.234 190.078C458.172 187.141 457.641 183.906 457.641 180.375C457.641 176.844 458.172 173.609 459.234 170.672C460.297 167.734 461.844 165.219 463.875 163.125C465.906 161 468.391 159.359 471.328 158.203C474.266 157.047 477.609 156.469 481.359 156.469ZM474.562 180.375C474.562 190.469 476.828 196.062 481.359 197.156C485.984 196.062 488.297 190.469 488.297 180.375C488.297 170.375 485.984 164.766 481.359 163.547C476.828 164.766 474.562 170.375 474.562 180.375ZM536.859 196.219C533.141 196.219 530.312 194.719 528.375 191.719C526.469 188.688 525.516 184.875 525.516 180.281C525.516 176.562 525.891 173.375 526.641 170.719C527.422 168.062 528.438 166.109 529.688 164.859C530.938 163.609 532.156 162.734 533.344 162.234C534.531 161.703 535.734 161.438 536.953 161.438C541.359 161.438 544.656 163.297 546.844 167.016V173.812C546.844 182.344 546.812 188.141 546.75 191.203C543.281 194.547 539.984 196.219 536.859 196.219ZM567.469 197.25C568.5 199.312 568.438 201.297 567.281 203.203C559.281 202.953 552.562 202.953 547.125 203.203C545.969 202.703 545.234 202.062 544.922 201.281C541.891 203.281 537.688 204.281 532.312 204.281C527 204.281 522.688 202.297 519.375 198.328C516.094 194.359 514.453 188.953 514.453 182.109C514.453 179.078 514.906 176.125 515.812 173.25C516.719 170.375 518.078 167.656 519.891 165.094C521.703 162.531 524.219 160.453 527.438 158.859C530.688 157.266 534.391 156.469 538.547 156.469C541.391 156.469 543.516 156.531 544.922 156.656C544.859 151.719 544.828 145.797 544.828 138.891C542.766 138.234 539.906 137.812 536.25 137.625C535.562 135.781 535.562 133.797 536.25 131.672C540.625 131.297 546.172 129.891 552.891 127.453C556.266 127.703 558.781 128.734 560.438 130.547C560.438 166.203 560.578 187.516 560.859 194.484C560.922 195.828 563.125 196.75 567.469 197.25ZM544.922 167.484C543.359 165.266 541.312 163.953 538.781 163.547C536.594 164.016 534.719 165.531 533.156 168.094C531.594 170.625 530.812 174.688 530.812 180.281C530.812 183.906 531.438 186.984 532.688 189.516C533.969 192.047 535.891 193.578 538.453 194.109C540.516 193.641 542.641 192.422 544.828 190.453C544.891 187.359 544.922 181.812 544.922 173.812V167.484ZM565.734 198.984C564.141 198.859 562.922 198.734 562.078 198.609C561.266 198.484 560.109 198.266 558.609 197.953C557.141 197.609 556.031 197.172 555.281 196.641C554.562 196.078 554.203 195.391 554.203 194.578C553.953 187.609 553.828 166.422 553.828 131.016C553.516 130.453 552.969 130.031 552.188 129.75C548.031 131.75 543.203 133.031 537.703 133.594C537.516 134.375 537.516 135.109 537.703 135.797C541.922 136.016 544.938 136.656 546.75 137.719C546.75 146.562 546.781 153.953 546.844 159.891C543.625 158.891 540.859 158.391 538.547 158.391C534.859 158.391 531.594 159.125 528.75 160.594C525.938 162.062 523.734 164 522.141 166.406C520.547 168.781 519.344 171.297 518.531 173.953C517.75 176.609 517.359 179.328 517.359 182.109C517.359 188.359 518.75 193.297 521.531 196.922C524.312 200.547 527.656 202.359 531.562 202.359C536.5 202.359 541.516 199.828 546.609 194.766C546.609 197.391 546.547 199.078 546.422 199.828C546.766 200.547 547.156 201.031 547.594 201.281C548.625 201.219 549.641 201.156 550.641 201.094C551.672 201.031 552.484 200.984 553.078 200.953C553.703 200.922 554.25 200.906 554.719 200.906C556.438 200.906 560.109 201 565.734 201.188C566.172 200.562 566.172 199.828 565.734 198.984ZM597 161.438C599.5 161.438 601.312 162.25 602.438 163.875C603.562 165.469 604.125 167.469 604.125 169.875C604.125 170.781 603.969 171.812 603.656 172.969H585.375C586.344 169.062 587.906 166.172 590.062 164.297C592.25 162.391 594.562 161.438 597 161.438ZM584.906 176.156H610.453C610.953 174.594 611.203 172.984 611.203 171.328C611.203 167.672 610.156 164.609 608.062 162.141C606 159.641 602.703 158.391 598.172 158.391C592.266 158.391 587.297 160.531 583.266 164.812C579.234 169.094 577.219 174.531 577.219 181.125C577.219 188.156 579.141 193.453 582.984 197.016C586.828 200.578 591.344 202.359 596.531 202.359C600.375 202.359 603.938 201.328 607.219 199.266C610.531 197.172 612.953 194.031 614.484 189.844C614.047 189.344 613.438 189 612.656 188.812C612.531 189 612.156 189.516 611.531 190.359C610.938 191.172 610.5 191.766 610.219 192.141C609.938 192.484 609.422 193 608.672 193.688C607.953 194.344 607.25 194.828 606.562 195.141C605.906 195.453 605.062 195.766 604.031 196.078C603 196.359 601.875 196.5 600.656 196.5C595.844 196.5 592.016 195.078 589.172 192.234C586.328 189.359 584.844 185.5 584.719 180.656C584.719 179.562 584.781 178.062 584.906 176.156ZM611.906 186.609C613.875 187.047 615.469 188.031 616.688 189.562C614.906 194.438 612.156 198.109 608.438 200.578C604.719 203.047 600.75 204.281 596.531 204.281C590.781 204.281 585.797 202.344 581.578 198.469C577.391 194.594 575.297 188.812 575.297 181.125C575.297 174.156 577.438 168.312 581.719 163.594C586.031 158.844 592.125 156.469 600 156.469C611.906 156.469 617.859 161.422 617.859 171.328C617.859 173.266 617.406 175.516 616.5 178.078H591.328V181.125C591.484 184.906 592.516 187.984 594.422 190.359C596.328 192.703 598.953 194.078 602.297 194.484C604.266 194.297 605.891 193.625 607.172 192.469C608.453 191.312 610.031 189.359 611.906 186.609ZM602.203 169.875C602.203 166.438 601.047 164.359 598.734 163.641C595.984 164.484 593.938 166.953 592.594 171.047H602.109C602.109 170.922 602.125 170.734 602.156 170.484C602.188 170.234 602.203 170.031 602.203 169.875ZM63.2812 313.609L18.9375 294.484L63.2812 275.594L60.9844 270.484L5.39062 294.578L60.9844 318.672L63.2812 313.609ZM27.1875 294.484L69.2344 312.625L65.2969 321.203H61.9688L0.609375 294.578L61.9688 268H65.2969L69.2344 276.531L27.1875 294.484ZM83.6719 347.969H89.9062L127.734 252.062H121.312L83.6719 347.969ZM94.6406 349.891H80.8125L119.953 250.141H133.969L94.6406 349.891ZM174.094 325.844C173.719 326.562 173.719 327.328 174.094 328.141C182.219 327.953 190.344 327.953 198.469 328.141C198.938 327.391 198.938 326.625 198.469 325.844C190.875 325.469 187.047 323.969 186.984 321.344L186.469 297.766C186.344 293.484 185.656 290.359 184.406 288.391C183.156 286.391 181 285.391 177.938 285.391C172.75 285.391 166.578 288.969 159.422 296.125V257.828C159.172 257.328 158.625 256.906 157.781 256.562C153.438 258.625 148.922 259.906 144.234 260.406C144.047 261.188 144.047 261.922 144.234 262.609C147.828 262.797 150.484 263.438 152.203 264.531V321.344C152.141 323.656 149.453 325.156 144.141 325.844C143.766 326.562 143.766 327.328 144.141 328.141C152.328 327.828 160.484 327.828 168.609 328.141C169.016 327.328 169.016 326.562 168.609 325.844C162.797 325.219 159.859 323.719 159.797 321.344C159.547 314.688 159.422 307.281 159.422 299.125C165.672 293.594 170.594 290.828 174.188 290.828C177.594 290.828 179.297 293.656 179.297 299.312L179.203 321.344C179.203 322.875 178.734 323.953 177.797 324.578C176.859 325.172 175.625 325.594 174.094 325.844ZM172.547 329.781C171.797 327.938 171.797 326.047 172.547 324.109C173.578 324.109 174.625 323.844 175.688 323.312C176.75 322.75 177.281 322.094 177.281 321.344L177.375 299.312C177.375 295.906 176.703 293.828 175.359 293.078C173.047 293.641 169.938 295.328 166.031 298.141C166.031 306.578 166.156 314.281 166.406 321.25C166.531 322.906 167.781 323.859 170.156 324.109C170.938 326.047 170.938 327.938 170.156 329.781C161 329.469 151.781 329.469 142.5 329.781C141.75 327.938 141.75 326.047 142.5 324.109C147.625 323.422 150.219 322.469 150.281 321.25V265.703C148.188 265.047 145.594 264.625 142.5 264.438C141.812 262.594 141.812 260.609 142.5 258.484C147.25 258.234 152.562 256.828 158.438 254.266C161.844 254.516 164.375 255.547 166.031 257.359V287.875C170.438 284.938 175.531 283.469 181.312 283.469C185.531 283.469 188.531 284.625 190.312 286.938C192.125 289.219 193.062 292.828 193.125 297.766C193.25 310.016 193.406 317.875 193.594 321.344C193.656 322.625 195.859 323.547 200.203 324.109C200.922 326.172 200.859 328.062 200.016 329.781C190.859 329.594 181.703 329.594 172.547 329.781ZM221.109 291.062H239.531C239.969 289.844 239.969 288.719 239.531 287.688H221.109V277.422C220.328 277.078 219.547 277.078 218.766 277.422C217.609 279.578 216.328 281.469 214.922 283.094C213.516 284.688 212.328 285.812 211.359 286.469C210.422 287.094 209.062 287.906 207.281 288.906C207.062 289.562 207.062 290.281 207.281 291.062H213V315.625C213 324.781 216.781 329.359 224.344 329.359C227.562 329.359 230.531 328.531 233.25 326.875C235.969 325.188 238 323.125 239.344 320.688C239.062 320 238.547 319.625 237.797 319.562C234.859 322.188 232.016 323.5 229.266 323.5C223.828 323.5 221.109 321.031 221.109 316.094V291.062ZM237.234 317.547C239.203 317.797 240.609 318.875 241.453 320.781C239.828 323.75 237.469 326.234 234.375 328.234C231.281 330.266 227.938 331.281 224.344 331.281C215.531 331.281 211.125 326.062 211.125 315.625V292.938H205.359C204.891 291.281 204.891 289.562 205.359 287.781C207.266 286.688 208.719 285.797 209.719 285.109C210.719 284.391 211.969 283.234 213.469 281.641C214.969 280.047 216.297 278.125 217.453 275.875C220.391 274.656 223.812 274.719 227.719 276.062V285.766H241.359C242.359 288.078 242.359 290.469 241.359 292.938H227.719V316.094C227.719 319.094 228.797 320.859 230.953 321.391C232.828 320.984 234.922 319.703 237.234 317.547ZM297.609 298.141C297.609 307.172 297.781 314.906 298.125 321.344C298.188 323 299.234 323.922 301.266 324.109C302.047 326.047 302.047 327.938 301.266 329.781C293.266 329.594 285.234 329.594 277.172 329.781C276.422 327.938 276.422 326.047 277.172 324.109C280.234 323.672 281.766 322.75 281.766 321.344L281.859 299.312C281.859 295.906 281.188 293.828 279.844 293.078C277.094 293.766 274.312 295.453 271.5 298.141C271.5 306.734 271.625 314.438 271.875 321.25C271.969 322.062 272.203 322.688 272.578 323.125C272.953 323.531 273.781 323.859 275.062 324.109C275.844 326.047 275.844 327.938 275.062 329.781C266.094 329.531 257.078 329.531 248.016 329.781C247.234 327.938 247.234 326.047 248.016 324.109C253.109 323.422 255.688 322.469 255.75 321.25C256.031 314.219 256.031 305.359 255.75 294.672C253.656 294.047 251.078 293.641 248.016 293.453C247.297 291.578 247.297 289.594 248.016 287.5C252.734 287.25 258.047 285.844 263.953 283.281C267.328 283.531 269.844 284.547 271.5 286.328V287.875C273.688 286.344 275.781 285.234 277.781 284.547C279.812 283.828 282.484 283.469 285.797 283.469C290.922 283.469 294.359 285.328 296.109 289.047C299.172 286.797 301.719 285.312 303.75 284.594C305.812 283.844 308.609 283.469 312.141 283.469C316.422 283.469 319.453 284.641 321.234 286.984C323.047 289.297 323.953 292.891 323.953 297.766C323.953 307.047 324.109 314.906 324.422 321.344C324.484 322.625 326.688 323.547 331.031 324.109C331.75 326.172 331.688 328.062 330.844 329.781C321.688 329.594 312.562 329.594 303.469 329.781C302.719 327.938 302.719 326.047 303.469 324.109C304.5 324.109 305.531 323.844 306.562 323.312C307.594 322.75 308.109 322.094 308.109 321.344L308.203 299.312C308.203 295.906 307.531 293.828 306.188 293.078C303.625 293.703 300.766 295.391 297.609 298.141ZM290.906 296.125C290.719 292.406 289.984 289.688 288.703 287.969C287.422 286.25 285.344 285.391 282.469 285.391C280.344 285.391 278.141 286 275.859 287.219C273.609 288.438 271.812 289.641 270.469 290.828C269.125 291.984 267.266 293.75 264.891 296.125V286.797C264.641 286.297 264.094 285.891 263.25 285.578C258.906 287.609 254.391 288.891 249.703 289.422C249.516 290.172 249.516 290.906 249.703 291.625C253.297 291.812 255.953 292.453 257.672 293.547C257.891 302.891 257.891 312.156 257.672 321.344C257.609 323.656 254.922 325.156 249.609 325.844C249.234 326.562 249.234 327.328 249.609 328.141C257.609 327.891 265.578 327.891 273.516 328.141C273.922 327.328 273.922 326.562 273.516 325.844C268.078 325.219 265.328 323.719 265.266 321.344C265.016 314.844 264.891 307.438 264.891 299.125C268.141 296.281 270.797 294.188 272.859 292.844C274.922 291.5 276.875 290.828 278.719 290.828C282.094 290.828 283.781 293.656 283.781 299.312L283.688 321.344C283.688 323.781 282.031 325.281 278.719 325.844C278.344 326.562 278.344 327.328 278.719 328.141C285.75 327.953 292.75 327.953 299.719 328.141C300.125 327.328 300.125 326.562 299.719 325.844C298.062 325.719 296.719 325.547 295.688 325.328C294.688 325.109 293.734 324.672 292.828 324.016C291.922 323.328 291.469 322.438 291.469 321.344L291 299.125C294.25 296.281 296.906 294.188 298.969 292.844C301.031 291.5 302.984 290.828 304.828 290.828C308.203 290.828 309.891 293.656 309.891 299.312L309.797 321.344C309.797 323.781 308.141 325.281 304.828 325.844C304.453 326.562 304.453 327.328 304.828 328.141C312.891 327.953 320.984 327.953 329.109 328.141C329.547 327.391 329.547 326.625 329.109 325.844C321.484 325.469 317.641 323.969 317.578 321.344L317.109 297.766C316.984 293.484 316.297 290.359 315.047 288.391C313.797 286.391 311.641 285.391 308.578 285.391C306.453 285.391 304.25 285.984 301.969 287.172C299.719 288.328 297.891 289.531 296.484 290.781C295.078 292.031 293.219 293.812 290.906 296.125ZM364.359 325.844C356.922 325.156 353.172 323.656 353.109 321.344C352.797 304.031 352.672 282.922 352.734 258.016C352.484 257.516 351.938 257.094 351.094 256.75C346.75 258.812 342.234 260.094 337.547 260.594C337.359 261.375 337.359 262.109 337.547 262.797C341.078 263.016 343.766 263.656 345.609 264.719C345.859 288.219 345.828 307.094 345.516 321.344C345.453 323.656 342.797 325.156 337.547 325.844C337.234 326.625 337.234 327.391 337.547 328.141C344.797 327.891 353.734 327.891 364.359 328.141C364.672 327.391 364.672 326.625 364.359 325.844ZM366.047 324.109C366.578 326.047 366.578 327.938 366.047 329.781C354.016 329.531 343.938 329.531 335.812 329.781C335.312 327.938 335.312 326.047 335.812 324.109C340.938 323.609 343.531 322.656 343.594 321.25C343.969 302.906 344 284.453 343.688 265.891C341.594 265.234 338.969 264.812 335.812 264.625C335.125 262.781 335.125 260.797 335.812 258.672C340.562 258.422 345.875 257.016 351.75 254.453C355.156 254.703 357.688 255.734 359.344 257.547C359.219 285.391 359.344 306.625 359.719 321.25C359.781 322.656 361.891 323.609 366.047 324.109ZM421.922 294.484L377.578 313.609L379.875 318.672L435.469 294.578L379.875 270.484L377.578 275.594L421.922 294.484ZM375 312.625L417.141 294.484L375 276.531L378.938 268H382.312L443.625 294.578L382.312 321.203H378.938L375 312.625Z" fill="#0703CB"/>
</svg>
