<svg width="157" height="190" viewBox="0 0 157 190" fill="none" xmlns="http://www.w3.org/2000/svg">
<path d="M0 0H157V100.259C157 109.032 153.398 117.421 147.036 123.463L77.5 189.5L9.67028 123.421C3.4873 117.397 0 109.131 0 100.499V0Z" fill="#1B2819"/>
<path d="M48.5469 59C48.5469 51.3125 48.7031 42.5781 49.0156 32.7969C49.0781 30.4219 54.2969 28.9219 64.6719 28.2969C64.8594 27.7031 64.8594 26.9688 64.6719 26.0938C56.4844 26.3437 50.0938 26.4688 45.5 26.4688C41.6562 26.4688 36.2188 26.3437 29.1875 26.0938C28.9062 26.6562 28.9062 27.3906 29.1875 28.2969C36.3438 28.9844 39.9531 30.4844 40.0156 32.7969C40.3281 40.1406 40.4844 48.875 40.4844 59V92.4219C40.4844 101.516 39.8281 107.875 38.5156 111.5C37.2031 115.156 34.4688 116.984 30.3125 116.984C27.3125 116.984 25 116.172 23.375 114.547C21.7812 112.922 20.9844 111.047 20.9844 108.922C20.9844 107.266 21.4062 105.953 22.25 104.984C23.0938 104.016 24.0938 103.531 25.25 103.531C26.3125 103.531 27.2344 103.922 28.0156 104.703C28.7969 104.516 29.3125 103.969 29.5625 103.062C28.4062 101.406 26.7031 100.578 24.4531 100.578C22.2031 100.578 20.3906 101.297 19.0156 102.734C17.6406 104.172 16.9531 106.172 16.9531 108.734C16.9531 111.734 18.125 114.344 20.4688 116.562C22.8125 118.812 26.0938 119.938 30.3125 119.938C32.0312 119.938 33.5938 119.75 35 119.375C36.4062 119 37.6875 118.375 38.8438 117.5C40 116.656 41.0156 115.703 41.8906 114.641C42.7656 113.578 43.5312 112.125 44.1875 110.281C44.875 108.469 45.4531 106.688 45.9219 104.938C46.3906 103.188 46.7812 100.938 47.0938 98.1875C47.4375 95.4375 47.7031 92.8281 47.8906 90.3594C48.0781 87.8906 48.2188 84.7969 48.3125 81.0781C48.4062 77.3594 48.4688 73.9219 48.5 70.7656C48.5312 67.6094 48.5469 63.6875 48.5469 59ZM31.4844 121.859C26.1094 121.859 22.0469 120.578 19.2969 118.016C16.5156 115.484 15.0938 112.391 15.0312 108.734C14.9688 105.516 15.8906 103.016 17.7969 101.234C19.6719 99.4531 21.8594 98.5625 24.3594 98.5625C26.7344 98.5625 28.7812 99.3594 30.5 100.953C32.2188 102.547 33.0781 104.75 33.0781 107.562C33.0781 108.781 32.8906 109.797 32.5156 110.609C32.1406 111.453 31.7188 112.109 31.25 112.578C30.8125 113.078 30.5625 113.422 30.5 113.609C30.75 114.203 31.2969 114.625 32.1406 114.875C34.7656 114.312 36.4844 112.328 37.2969 108.922C38.1406 105.516 38.5625 100.016 38.5625 92.4219V59C38.5625 48.9375 38.4062 40.2344 38.0938 32.8906C38.0312 31.7344 34.5469 30.8125 27.6406 30.125C27.1094 28.0625 27.1719 26.0469 27.8281 24.0781C33.3281 24.3906 40.3281 24.5469 48.8281 24.5469C50.1094 24.5469 52.6719 24.5156 56.5156 24.4531C60.3594 24.3906 63.7188 24.3594 66.5938 24.3594C67.1875 26.1406 67.2188 28.0625 66.6875 30.125C59.7812 30.8125 56.2969 31.7344 56.2344 32.8906C55.8594 40.7031 55.6719 50.5625 55.6719 62.4688C55.6719 67.5312 55.6094 72.0156 55.4844 75.9219C55.3594 79.7969 55.0781 83.8906 54.6406 88.2031C54.2344 92.4844 53.6719 96.1875 52.9531 99.3125C52.2656 102.469 51.3125 105.531 50.0938 108.5C48.875 111.469 47.4219 113.875 45.7344 115.719C44.0469 117.594 42 119.078 39.5938 120.172C37.1875 121.297 34.4844 121.859 31.4844 121.859ZM101.375 22.625C105.844 22.625 109.953 23.25 113.703 24.5C117.453 25.75 120.828 26.5625 123.828 26.9375C122.172 32.75 122.109 39.0156 123.641 45.7344C122.047 47.0781 120.219 47.8594 118.156 48.0781C117.906 47.4844 117.453 46.25 116.797 44.375C116.172 42.4688 115.562 40.9062 114.969 39.6875C114.406 38.4688 113.609 37.0781 112.578 35.5156C111.578 33.9531 110.234 32.7188 108.547 31.8125C106.891 30.875 104.984 30.2344 102.828 29.8906C99.6719 30.1719 97.2344 31.1406 95.5156 32.7969C93.7969 34.4531 92.9375 36.5938 92.9375 39.2188C92.9375 41.9062 93.625 44.125 95 45.875C96.375 47.5938 98.1562 48.8906 100.344 49.7656C102.562 50.6094 105 51.3594 107.656 52.0156C110.312 52.6406 112.953 53.4219 115.578 54.3594C118.203 55.2656 120.609 56.4688 122.797 57.9688C125.016 59.4375 126.812 61.6406 128.188 64.5781C129.562 67.5156 130.25 71.0938 130.25 75.3125C130.25 80.4375 128.766 84.8438 125.797 88.5312C122.828 92.2188 119.328 94.8594 115.297 96.4531C111.266 98.0469 107.141 98.8438 102.922 98.8438C93.6406 98.8438 84.4531 96.7969 75.3594 92.7031C75.5469 88.6719 75.6406 86.2031 75.6406 85.2969C75.6406 80.2344 75.1562 74.7969 74.1875 68.9844C77 67.6406 80.1406 67.5781 83.6094 68.7969C84.7656 75.8906 87 81.3281 90.3125 85.1094C93.6562 88.8906 97.3125 91 101.281 91.4375C105 91.1875 107.859 89.9844 109.859 87.8281C111.891 85.6406 112.906 82.875 112.906 79.5312C112.906 76.7188 112.25 74.3438 110.938 72.4062C109.625 70.4375 107.891 68.9219 105.734 67.8594C103.578 66.7656 101.234 65.7812 98.7031 64.9062C96.2031 64.0312 93.6719 63.1094 91.1094 62.1406C88.5469 61.1406 86.1875 59.9531 84.0312 58.5781C81.9062 57.2031 80.1875 55.2812 78.875 52.8125C77.5625 50.3438 76.9062 47.3438 76.9062 43.8125C76.9062 40.625 77.4062 37.7656 78.4062 35.2344C79.4375 32.7031 80.7656 30.6719 82.3906 29.1406C84.0469 27.6094 85.9688 26.3281 88.1562 25.2969C90.375 24.2656 92.5625 23.5625 94.7188 23.1875C96.9062 22.8125 99.125 22.625 101.375 22.625ZM101.375 24.5469C98.75 24.5469 96.2031 24.8594 93.7344 25.4844C91.2656 26.0781 88.8594 27.0625 86.5156 28.4375C84.2031 29.8125 82.3438 31.8281 80.9375 34.4844C79.5312 37.1406 78.8281 40.25 78.8281 43.8125C78.8281 46.9688 79.4844 49.6875 80.7969 51.9688C82.1094 54.2188 83.8281 55.9688 85.9531 57.2188C88.1094 58.4688 90.4688 59.5781 93.0312 60.5469C95.5938 61.4844 98.125 62.4375 100.625 63.4062C103.156 64.375 105.5 65.4688 107.656 66.6875C109.812 67.9062 111.547 69.6094 112.859 71.7969C114.172 73.9531 114.828 76.5312 114.828 79.5312C114.828 83.6875 113.5 87.0469 110.844 89.6094C108.188 92.1719 104.422 93.4531 99.5469 93.4531C94.8594 93.4531 90.5 91.5 86.4688 87.5938C82.4375 83.6875 79.7812 77.8438 78.5 70.0625C77.875 69.6562 77.1406 69.6562 76.2969 70.0625C77.1406 74.9688 77.5625 80.0469 77.5625 85.2969C77.5625 86.7656 77.5 88.8438 77.375 91.5312C85.125 95.125 92.5156 96.9219 99.5469 96.9219C105.359 96.9219 110.734 95.2031 115.672 91.7656C120.609 88.2969 123.078 83.4531 123.078 77.2344C123.078 73.7031 122.391 70.7188 121.016 68.2812C119.641 65.8125 117.844 63.8906 115.625 62.5156C113.406 61.1406 110.969 59.9531 108.312 58.9531C105.656 57.9531 103.016 57.0156 100.391 56.1406C97.7656 55.2344 95.3438 54.2344 93.125 53.1406C90.9375 52.0469 89.1562 50.5 87.7812 48.5C86.4062 46.4688 85.7188 44.0156 85.7188 41.1406C85.7188 37.1094 87.0781 33.8906 89.7969 31.4844C92.5156 29.0781 96.375 27.875 101.375 27.875C110.062 27.875 116.047 33.8906 119.328 45.9219C120.297 46.0781 120.969 45.8594 121.344 45.2656C120.312 37.6406 118.047 32.2812 114.547 29.1875C111.078 26.0938 106.688 24.5469 101.375 24.5469Z" fill="#EEC800"/>
</svg>
